<svg width="126" height="43" viewBox="0 0 126 43" fill="none" xmlns="http://www.w3.org/2000/svg">
<g clip-path="url(#clip0_13037_454695)">
<path d="M115.966 0.351699H10.0395C9.6534 0.351699 9.27192 0.351699 8.88683 0.353799C8.56447 0.355899 8.24467 0.362 7.91922 0.367134C7.21218 0.375431 6.5068 0.437459 5.80922 0.55268C5.11261 0.670408 4.43783 0.892361 3.80769 1.21103C3.17832 1.53239 2.60325 1.94998 2.10334 2.44862C1.6008 2.94587 1.1819 3.52062 0.862733 4.15077C0.54269 4.77966 0.320771 5.45358 0.20464 6.14925C0.0874062 6.84404 0.0243214 7.54685 0.0159522 8.25135C0.0061808 8.57328 0.00514891 8.89628 0 9.21826V33.4882C0.00514891 33.8143 0.0061808 34.1301 0.0159522 34.4562C0.024324 35.1607 0.0874088 35.8635 0.20464 36.5582C0.32045 37.2543 0.542382 37.9286 0.862733 38.5577C1.18175 39.1858 1.60071 39.7583 2.10334 40.2528C2.60135 40.7536 3.1768 41.1715 3.80769 41.4904C4.43782 41.8099 5.11253 42.0332 5.80922 42.1527C6.50692 42.267 7.21223 42.3291 7.91922 42.3384C8.24467 42.3455 8.56447 42.3496 8.88683 42.3496C9.27191 42.3517 9.65342 42.3517 10.0395 42.3517H115.966C116.345 42.3517 116.729 42.3517 117.108 42.3496C117.428 42.3496 117.757 42.3455 118.078 42.3384C118.784 42.3296 119.488 42.2675 120.184 42.1527C120.883 42.0323 121.56 41.8091 122.193 41.4904C122.824 41.1713 123.399 40.7534 123.896 40.2528C124.398 39.7563 124.817 39.1843 125.14 38.5577C125.458 37.9281 125.678 37.2539 125.792 36.5582C125.91 35.8634 125.975 35.1608 125.988 34.4562C125.992 34.1301 125.992 33.8143 125.992 33.4882C126 33.1068 126 32.7274 126 32.3397V10.3646C126 9.98011 126 9.59867 125.992 9.21826C125.992 8.89628 125.992 8.57328 125.988 8.25131C125.975 7.54674 125.91 6.8441 125.792 6.14921C125.678 5.45395 125.458 4.78008 125.14 4.15073C124.49 2.88766 123.46 1.85953 122.193 1.21094C121.56 0.893045 120.883 0.671151 120.184 0.552585C119.488 0.436857 118.784 0.374807 118.078 0.366987C117.757 0.361863 117.428 0.35571 117.108 0.353663C116.729 0.351562 116.345 0.351699 115.966 0.351699Z" fill="#A6A6A6"/>
<path d="M8.89192 41.433C8.57111 41.433 8.25805 41.4289 7.93975 41.4218C7.28037 41.4132 6.62254 41.356 5.97164 41.2505C5.36471 41.1463 4.77676 40.9524 4.22718 40.6752C3.68264 40.4004 3.18598 40.0399 2.75621 39.6078C2.32023 39.1807 1.95726 38.6854 1.68167 38.1415C1.40305 37.594 1.21023 37.0072 1.10992 36.4014C1.0016 35.7505 0.942991 35.0924 0.934605 34.4327C0.927929 34.2112 0.919189 33.4739 0.919189 33.4739V9.21832C0.919189 9.21832 0.928498 8.49233 0.934657 8.27905C0.942687 7.62036 1.00095 6.96324 1.10895 6.31337C1.20944 5.70597 1.40242 5.11744 1.68119 4.56817C1.95576 4.0246 2.31672 3.52891 2.75008 3.10032C3.18295 2.66766 3.6812 2.30539 4.22667 2.02673C4.77498 1.75046 5.36182 1.55793 5.96753 1.45559C6.62056 1.34909 7.28068 1.2915 7.94234 1.28333L8.89244 1.27051H117.102L118.064 1.28384C118.719 1.29161 119.374 1.34868 120.021 1.45456C120.632 1.55818 121.225 1.75205 121.78 2.0298C122.873 2.59139 123.762 3.47988 124.323 4.57073C124.597 5.11621 124.787 5.69994 124.886 6.3021C124.996 6.9573 125.057 7.61958 125.069 8.28367C125.072 8.58103 125.072 8.90044 125.072 9.21832C125.081 9.61207 125.081 9.98684 125.081 10.3647V32.3398C125.081 32.7213 125.081 33.0935 125.072 33.4688C125.072 33.8102 125.072 34.123 125.068 34.4449C125.056 35.0972 124.996 35.7476 124.888 36.3911C124.79 37.0012 124.598 37.5926 124.32 38.1446C124.042 38.6827 123.681 39.1737 123.25 39.5996C122.82 40.0341 122.323 40.3966 121.777 40.6732C121.224 40.9525 120.632 41.1471 120.021 41.2505C119.37 41.3565 118.712 41.4138 118.052 41.4218C117.744 41.4289 117.421 41.433 117.107 41.433L115.966 41.4351L8.89192 41.433Z" fill="black"/>
<path d="M26.0803 21.6675C26.0916 20.7911 26.3251 19.9318 26.7589 19.1696C27.1928 18.4073 27.8129 17.7669 28.5616 17.3078C28.086 16.6304 27.4585 16.0729 26.729 15.6796C25.9995 15.2864 25.188 15.0681 24.3592 15.0423C22.591 14.8572 20.8769 16.0973 19.9758 16.0973C19.0574 16.0973 17.6701 15.0606 16.1763 15.0913C15.21 15.1224 14.2683 15.4026 13.4429 15.9046C12.6176 16.4065 11.9366 17.1131 11.4665 17.9556C9.43013 21.4714 10.9491 26.6385 12.8998 29.4804C13.8758 30.8721 15.0164 32.4265 16.5089 32.3714C17.9694 32.311 18.5149 31.4427 20.2778 31.4427C22.0244 31.4427 22.5362 32.3714 24.059 32.3364C25.6262 32.311 26.6136 30.9386 27.5553 29.5338C28.2565 28.5422 28.7961 27.4463 29.1541 26.2866C28.2436 25.9026 27.4666 25.2598 26.92 24.4384C26.3734 23.617 26.0814 22.6533 26.0803 21.6675Z" fill="white"/>
<path d="M23.2041 13.173C24.0586 12.15 24.4796 10.8353 24.3776 9.50781C23.0722 9.64454 21.8663 10.2667 21.0002 11.2504C20.5768 11.731 20.2525 12.29 20.0458 12.8956C19.8392 13.5012 19.7543 14.1415 19.7959 14.7799C20.4489 14.7866 21.0949 14.6454 21.6853 14.3671C22.2756 14.0888 22.7949 13.6805 23.2041 13.173Z" fill="white"/>
<path d="M44.542 28.8486H39.5579L38.361 32.3729H36.25L40.9708 19.334H43.1641L47.8849 32.3729H45.7378L44.542 28.8486ZM40.0741 27.2223H44.0248L42.0772 21.5027H42.0227L40.0741 27.2223Z" fill="white"/>
<path d="M58.0802 27.6196C58.0802 30.5737 56.4947 32.4717 54.1019 32.4717C53.4957 32.5033 52.8929 32.3641 52.3625 32.07C51.832 31.7758 51.3953 31.3387 51.1024 30.8085H51.0571V35.5171H49.1003V22.8659H50.9944V24.447H51.0304C51.3368 23.9194 51.7809 23.4845 52.3154 23.1886C52.8499 22.8927 53.4548 22.7468 54.0659 22.7664C56.4854 22.7664 58.0802 24.6736 58.0802 27.6196ZM56.069 27.6196C56.069 25.6949 55.0715 24.4296 53.5497 24.4296C52.0546 24.4296 51.0489 25.7216 51.0489 27.6196C51.0489 29.535 52.0546 30.8178 53.5497 30.8178C55.0715 30.8178 56.069 29.5617 56.069 27.6196Z" fill="white"/>
<path d="M68.5727 27.6196C68.5727 30.5737 66.9871 32.4717 64.5943 32.4717C63.9882 32.5033 63.3854 32.3641 62.8549 32.07C62.3244 31.7758 61.8877 31.3386 61.5948 30.8085H61.5496V35.5171H59.5928V22.8659H61.4868V24.447H61.5228C61.8292 23.9194 62.2732 23.4845 62.8078 23.1886C63.3423 22.8927 63.9472 22.7467 64.5583 22.7664C66.9778 22.7664 68.5727 24.6736 68.5727 27.6196ZM66.5614 27.6196C66.5614 25.6949 65.564 24.4296 64.0421 24.4296C62.547 24.4296 61.5414 25.7216 61.5414 27.6196C61.5414 29.535 62.547 30.8178 64.0421 30.8178C65.564 30.8178 66.5614 29.5617 66.5614 27.6196Z" fill="white"/>
<path d="M75.5073 28.7396C75.6522 30.0326 76.9119 30.8816 78.6332 30.8816C80.2825 30.8816 81.4692 30.0325 81.4692 28.8667C81.4692 27.8546 80.7535 27.2486 79.0589 26.8333L77.3643 26.4262C74.9633 25.8479 73.8487 24.7282 73.8487 22.9112C73.8487 20.6615 75.8147 19.1162 78.6065 19.1162C81.3694 19.1162 83.2635 20.6615 83.3272 22.9112H81.3519C81.2337 21.61 80.155 20.8245 78.5787 20.8245C77.0023 20.8245 75.9237 21.6192 75.9237 22.7758C75.9237 23.6977 76.6126 24.2401 78.2979 24.6553L79.7385 25.0081C82.4213 25.6407 83.536 26.7154 83.536 28.6226C83.536 31.062 81.5874 32.5898 78.4882 32.5898C75.5884 32.5898 73.6306 31.0979 73.5042 28.7395L75.5073 28.7396Z" fill="white"/>
<path d="M87.7591 20.6162V22.8659H89.572V24.4112H87.7591V29.652C87.7591 30.4661 88.1221 30.8455 88.919 30.8455C89.1342 30.8418 89.3491 30.8267 89.5627 30.8004V32.3364C89.2044 32.4032 88.8403 32.4334 88.4758 32.4266C86.5458 32.4266 85.7931 31.7037 85.7931 29.8601V24.4112H84.407V22.8659H85.7931V20.6162H87.7591Z" fill="white"/>
<path d="M90.6218 27.6196C90.6218 24.6286 92.3884 22.749 95.1431 22.749C97.9071 22.749 99.6655 24.6285 99.6655 27.6196C99.6655 30.6189 97.9164 32.4902 95.1431 32.4902C92.3709 32.4902 90.6218 30.6189 90.6218 27.6196ZM97.6716 27.6196C97.6716 25.5678 96.7287 24.3568 95.1431 24.3568C93.5575 24.3568 92.6156 25.5771 92.6156 27.6196C92.6156 29.6796 93.5575 30.8814 95.1431 30.8814C96.7287 30.8814 97.6716 29.6796 97.6716 27.6196Z" fill="white"/>
<path d="M101.279 22.8658H103.145V24.4838H103.19C103.317 23.9785 103.614 23.5319 104.031 23.2191C104.449 22.9063 104.962 22.7464 105.483 22.7663C105.709 22.7655 105.934 22.7899 106.154 22.8391V24.6643C105.869 24.5776 105.572 24.5377 105.275 24.5464C104.99 24.5349 104.707 24.5849 104.444 24.6929C104.181 24.8009 103.944 24.9644 103.751 25.1722C103.557 25.38 103.411 25.6271 103.322 25.8967C103.233 26.1662 103.203 26.4516 103.236 26.7335V32.3722H101.279L101.279 22.8658Z" fill="white"/>
<path d="M115.176 29.5802C114.913 31.3059 113.227 32.4902 111.071 32.4902C108.298 32.4902 106.576 30.6373 106.576 27.6647C106.576 24.6829 108.307 22.749 110.989 22.749C113.626 22.749 115.285 24.5558 115.285 27.4381V28.1067H108.552V28.2246C108.521 28.5745 108.565 28.9269 108.681 29.2585C108.797 29.5902 108.982 29.8934 109.225 30.1481C109.467 30.4028 109.761 30.6031 110.087 30.7357C110.414 30.8683 110.764 30.9302 111.116 30.9173C111.579 30.9605 112.043 30.8537 112.439 30.6128C112.836 30.3719 113.144 30.0097 113.318 29.5802L115.176 29.5802ZM108.561 26.7429H113.327C113.345 26.4283 113.297 26.1135 113.187 25.8183C113.076 25.523 112.906 25.2536 112.687 25.0271C112.467 24.8005 112.203 24.6217 111.911 24.5017C111.618 24.3818 111.305 24.3234 110.989 24.3302C110.67 24.3283 110.354 24.3893 110.059 24.5098C109.764 24.6303 109.496 24.8078 109.271 25.0321C109.045 25.2564 108.866 25.5231 108.744 25.8167C108.622 26.1104 108.56 26.4252 108.561 26.7429Z" fill="white"/>
<path d="M39.829 9.51883C40.2392 9.48947 40.6509 9.55127 41.0343 9.69978C41.4176 9.84828 41.7632 10.0798 42.046 10.3776C42.3288 10.6754 42.5418 11.0321 42.6697 11.4219C42.7975 11.8118 42.837 12.225 42.7852 12.6319C42.7852 14.6335 41.7004 15.784 39.829 15.784H37.5596V9.51883H39.829ZM38.5354 14.898H39.72C40.0131 14.9155 40.3065 14.8675 40.5787 14.7577C40.8509 14.6478 41.0952 14.4788 41.2936 14.263C41.4921 14.0471 41.6398 13.7899 41.726 13.5099C41.8122 13.23 41.8347 12.9344 41.7919 12.6447C41.8316 12.3561 41.8068 12.0623 41.7193 11.7844C41.6318 11.5065 41.4837 11.2514 41.2857 11.0373C41.0877 10.8231 40.8446 10.6553 40.5739 10.5459C40.3032 10.4364 40.0116 10.3881 39.72 10.4042H38.5354V14.898Z" fill="white"/>
<path d="M43.8875 13.418C43.8577 13.1073 43.8934 12.7938 43.9922 12.4977C44.091 12.2015 44.2508 11.9292 44.4613 11.6982C44.6718 11.4672 44.9285 11.2827 45.2147 11.1564C45.5009 11.0301 45.8105 10.9648 46.1235 10.9648C46.4365 10.9648 46.7461 11.0301 47.0323 11.1564C47.3186 11.2827 47.5752 11.4672 47.7857 11.6982C47.9962 11.9292 48.156 12.2015 48.2548 12.4977C48.3536 12.7938 48.3893 13.1073 48.3595 13.418C48.3898 13.7291 48.3546 14.043 48.2561 14.3397C48.1575 14.6363 47.9978 14.9091 47.7873 15.1406C47.5767 15.372 47.3199 15.5569 47.0333 15.6835C46.7468 15.81 46.4369 15.8754 46.1235 15.8754C45.8101 15.8754 45.5002 15.81 45.2137 15.6835C44.9271 15.5569 44.6703 15.372 44.4597 15.1406C44.2492 14.9091 44.0895 14.6363 43.9909 14.3397C43.8924 14.043 43.8572 13.7291 43.8875 13.418ZM47.397 13.418C47.397 12.3932 46.9353 11.7938 46.125 11.7938C45.3117 11.7938 44.8541 12.3932 44.8541 13.4181C44.8541 14.4511 45.3117 15.0459 46.125 15.0459C46.9353 15.0458 47.397 14.447 47.397 13.418Z" fill="white"/>
<path d="M54.304 15.7837H53.3333L52.3534 12.3015H52.2794L51.3035 15.7837H50.3421L49.0352 11.0557H49.9843L50.8336 14.6635H50.9035L51.8783 11.0557H52.776L53.7508 14.6635H53.8248L54.6701 11.0557H55.6058L54.304 15.7837Z" fill="white"/>
<path d="M56.7048 11.0559H57.6056V11.807H57.6755C57.7941 11.5372 57.9942 11.3111 58.2478 11.1601C58.5015 11.0091 58.796 10.9407 59.0904 10.9646C59.3211 10.9473 59.5528 10.982 59.7682 11.0661C59.9836 11.1502 60.1773 11.2816 60.3349 11.4505C60.4925 11.6193 60.61 11.8214 60.6787 12.0417C60.7473 12.262 60.7654 12.4949 60.7315 12.7232V15.7839H59.7958V12.9575C59.7958 12.1977 59.4647 11.8198 58.7727 11.8198C58.6161 11.8125 58.4597 11.8391 58.3143 11.8977C58.169 11.9564 58.038 12.0456 57.9305 12.1594C57.823 12.2732 57.7414 12.4089 57.6913 12.5571C57.6413 12.7053 57.624 12.8625 57.6406 13.018V15.784H56.7048L56.7048 11.0559Z" fill="white"/>
<path d="M62.2227 9.20996H63.1584V15.7837H62.2227V9.20996Z" fill="white"/>
<path d="M64.459 13.4181C64.4293 13.1074 64.4649 12.7939 64.5638 12.4977C64.6626 12.2015 64.8224 11.9292 65.033 11.6982C65.2435 11.4672 65.5001 11.2827 65.7864 11.1564C66.0727 11.0301 66.3822 10.9648 66.6953 10.9648C67.0083 10.9648 67.3179 11.0301 67.6041 11.1564C67.8904 11.2827 68.147 11.4672 68.3576 11.6982C68.5681 11.9292 68.7279 12.2015 68.8268 12.4977C68.9256 12.7939 68.9613 13.1074 68.9315 13.4181C68.9618 13.7292 68.9266 14.0431 68.828 14.3398C68.7294 14.6364 68.5697 14.9092 68.3591 15.1406C68.1485 15.3721 67.8917 15.557 67.6051 15.6836C67.3186 15.8101 67.0087 15.8755 66.6953 15.8755C66.3819 15.8755 66.072 15.8101 65.7854 15.6836C65.4989 15.557 65.242 15.3721 65.0314 15.1406C64.8208 14.9092 64.6611 14.6364 64.5625 14.3398C64.464 14.0431 64.4287 13.7292 64.459 13.4181ZM67.9685 13.4181C67.9685 12.3933 67.5068 11.7939 66.6966 11.7939C65.8832 11.7939 65.4256 12.3933 65.4256 13.4181C65.4256 14.4512 65.8832 15.0459 66.6966 15.0459C67.5068 15.0459 67.9685 14.4471 67.9685 13.4181Z" fill="white"/>
<path d="M69.9167 14.4471C69.9167 13.596 70.5522 13.1053 71.6802 13.0356L72.9645 12.9618V12.5537C72.9645 12.0543 72.6334 11.7723 71.9939 11.7723C71.4715 11.7723 71.1095 11.9636 71.0057 12.2979H70.0998C70.1954 11.4857 70.9615 10.9648 72.037 10.9648C73.2257 10.9648 73.8961 11.5549 73.8961 12.5537V15.7842H72.9954V15.1197H72.9214C72.7711 15.3581 72.5601 15.5524 72.3099 15.6828C72.0597 15.8132 71.7792 15.8751 71.4972 15.8621C71.2982 15.8827 71.097 15.8615 70.9066 15.7999C70.7163 15.7383 70.5411 15.6376 70.3921 15.5042C70.2432 15.3709 70.124 15.208 70.0421 15.0259C69.9602 14.8438 69.9175 14.6466 69.9167 14.4471ZM72.9645 14.0431V13.6478L71.8067 13.7216C71.1538 13.7652 70.8576 13.9867 70.8576 14.4035C70.8576 14.829 71.2278 15.0766 71.7368 15.0766C71.886 15.0917 72.0366 15.0767 72.1798 15.0325C72.323 14.9883 72.4559 14.9158 72.5704 14.8194C72.685 14.723 72.7789 14.6045 72.8466 14.4712C72.9143 14.3378 72.9544 14.1922 72.9645 14.0431Z" fill="white"/>
<path d="M75.1257 13.4177C75.1257 11.9237 75.8959 10.9772 77.0938 10.9772C77.3902 10.9636 77.6842 11.0344 77.9417 11.1813C78.1992 11.3282 78.4094 11.5451 78.5478 11.8067H78.6177V9.20996H79.5535V15.7837H78.6568V15.0367H78.5828C78.4337 15.2966 78.2161 15.5108 77.9537 15.6562C77.6912 15.8017 77.3939 15.8727 77.0938 15.8617C75.8877 15.8617 75.1257 14.9153 75.1257 13.4177ZM76.0923 13.4177C76.0923 14.4205 76.5664 15.0239 77.3592 15.0239C78.1478 15.0239 78.6352 14.4118 78.6352 13.4218C78.6352 12.4364 78.1427 11.8155 77.3592 11.8155C76.5715 11.8155 76.0923 12.423 76.0923 13.4177Z" fill="white"/>
<path d="M83.4249 13.418C83.3951 13.1073 83.4307 12.7938 83.5295 12.4977C83.6283 12.2015 83.7881 11.9292 83.9987 11.6982C84.2092 11.4672 84.4658 11.2827 84.752 11.1564C85.0383 11.0301 85.3478 10.9648 85.6609 10.9648C85.9739 10.9648 86.2834 11.0301 86.5697 11.1564C86.8559 11.2827 87.1125 11.4672 87.323 11.6982C87.5336 11.9292 87.6934 12.2015 87.7922 12.4977C87.891 12.7938 87.9266 13.1073 87.8968 13.418C87.9272 13.7291 87.892 14.043 87.7934 14.3397C87.6949 14.6363 87.5352 14.9091 87.3246 15.1406C87.114 15.372 86.8572 15.5569 86.5707 15.6835C86.2841 15.81 85.9742 15.8754 85.6609 15.8754C85.3475 15.8754 85.0376 15.81 84.751 15.6835C84.4645 15.5569 84.2077 15.372 83.9971 15.1406C83.7865 14.9091 83.6268 14.6363 83.5283 14.3397C83.4297 14.043 83.3945 13.7291 83.4249 13.418ZM86.9344 13.418C86.9344 12.3932 86.4727 11.7938 85.6624 11.7938C84.849 11.7938 84.3915 12.3932 84.3915 13.4181C84.3915 14.4511 84.8491 15.0459 85.6624 15.0459C86.4727 15.0458 86.9344 14.447 86.9344 13.418Z" fill="white"/>
<path d="M89.1523 11.0559H90.0531V11.807H90.123C90.2417 11.5372 90.4417 11.3111 90.6953 11.1601C90.949 11.0091 91.2435 10.9407 91.5379 10.9646C91.7686 10.9473 92.0003 10.982 92.2157 11.0661C92.4311 11.1502 92.6248 11.2816 92.7824 11.4505C92.9401 11.6193 93.0575 11.8214 93.1262 12.0417C93.1948 12.262 93.2129 12.4949 93.179 12.7232V15.7839H92.2433V12.9575C92.2433 12.1977 91.9122 11.8198 91.2202 11.8198C91.0636 11.8125 90.9072 11.8391 90.7618 11.8977C90.6165 11.9564 90.4855 12.0456 90.378 12.1594C90.2705 12.2732 90.1889 12.4089 90.1388 12.5571C90.0888 12.7053 90.0715 12.8625 90.0881 13.018V15.784H89.1523V11.0559Z" fill="white"/>
<path d="M98.4665 9.87891V11.0776H99.4938V11.8636H98.4665V14.2948C98.4665 14.79 98.6712 15.0069 99.137 15.0069C99.2562 15.0065 99.3754 14.9993 99.4938 14.9853V15.7626C99.3258 15.7926 99.1555 15.8085 98.9848 15.8103C97.9442 15.8103 97.5298 15.4452 97.5298 14.5337V11.8635H96.7771V11.0775H97.5298V9.87891H98.4665Z" fill="white"/>
<path d="M100.772 9.20996H101.699V11.8155H101.773C101.898 11.5432 102.103 11.3158 102.362 11.1642C102.621 11.0126 102.92 10.9443 103.219 10.9685C103.449 10.9561 103.678 10.9943 103.891 11.0804C104.104 11.1666 104.295 11.2985 104.451 11.4669C104.607 11.6352 104.724 11.8358 104.793 12.0544C104.863 12.2729 104.883 12.504 104.852 12.7312V15.7837H103.915V12.9613C103.915 12.2061 103.563 11.8237 102.902 11.8237C102.741 11.8105 102.579 11.8326 102.428 11.8883C102.276 11.944 102.139 12.032 102.025 12.1462C101.911 12.2603 101.824 12.3979 101.769 12.5493C101.714 12.7006 101.693 12.8621 101.708 13.0224V15.7837H100.772L100.772 9.20996Z" fill="white"/>
<path d="M110.308 14.5067C110.181 14.9388 109.906 15.3126 109.53 15.5626C109.154 15.8127 108.703 15.9231 108.254 15.8745C107.941 15.8828 107.631 15.8231 107.344 15.6997C107.057 15.5763 106.8 15.3921 106.592 15.1599C106.384 14.9277 106.228 14.6531 106.137 14.3551C106.046 14.057 106.021 13.7428 106.063 13.4341C106.022 13.1245 106.047 12.8096 106.138 12.5106C106.23 12.2117 106.384 11.9358 106.591 11.7016C106.799 11.4674 107.054 11.2803 107.34 11.153C107.626 11.0258 107.936 10.9613 108.25 10.9639C109.569 10.9639 110.365 11.8627 110.365 13.3474V13.673H107.017V13.7253C107.002 13.8988 107.024 14.0735 107.081 14.2381C107.138 14.4027 107.229 14.5536 107.348 14.6811C107.466 14.8086 107.611 14.91 107.771 14.9786C107.932 15.0473 108.105 15.0818 108.279 15.0798C108.503 15.1066 108.73 15.0664 108.931 14.9644C109.132 14.8623 109.298 14.703 109.407 14.5066L110.308 14.5067ZM107.017 12.9829H109.411C109.423 12.8243 109.402 12.6649 109.348 12.515C109.294 12.3652 109.21 12.2282 109.1 12.1128C108.99 11.9975 108.857 11.9063 108.71 11.8452C108.562 11.7841 108.404 11.7545 108.244 11.7581C108.083 11.7561 107.922 11.7864 107.772 11.8472C107.622 11.9081 107.486 11.9982 107.372 12.1124C107.257 12.2265 107.167 12.3624 107.106 12.5119C107.045 12.6614 107.015 12.8216 107.017 12.9829Z" fill="white"/>
</g>
<defs>
<clipPath id="clip0_13037_454695">
<rect width="126" height="42" fill="white" transform="translate(0 0.351562)"/>
</clipPath>
</defs>
</svg>
