<svg width="49" height="49" viewBox="0 0 49 49" fill="none" xmlns="http://www.w3.org/2000/svg">
<path d="M6 20.2344C6 19.1298 6.89543 18.2344 8 18.2344H10C11.1046 18.2344 12 19.1298 12 20.2344V28.2344C12 29.3389 11.1046 30.2344 10 30.2344H8C6.89543 30.2344 6 29.3389 6 28.2344V20.2344Z" fill="#EE4F53"/>
<path d="M37 20.2344C37 19.1298 37.8954 18.2344 39 18.2344H41C42.1046 18.2344 43 19.1298 43 20.2344V28.2344C43 29.3389 42.1046 30.2344 41 30.2344H39C37.8954 30.2344 37 29.3389 37 28.2344V20.2344Z" fill="#EE4F53"/>
<path fill-rule="evenodd" clip-rule="evenodd" d="M24.5 7.73438C17.8531 7.73438 12.5 12.9021 12.5 19.2344H11.5C11.5 12.3118 17.3397 6.73438 24.5 6.73438C31.6603 6.73438 37.5 12.3118 37.5 19.2344H36.5C36.5 12.9021 31.1469 7.73438 24.5 7.73438Z" fill="#1A1A1A"/>
<path fill-rule="evenodd" clip-rule="evenodd" d="M13 19.2344H10C8.89543 19.2344 8 20.1298 8 21.2344V27.2344C8 28.3389 8.89543 29.2344 10 29.2344H13V19.2344ZM10 18.2344C8.34315 18.2344 7 19.5775 7 21.2344V27.2344C7 28.8912 8.34315 30.2344 10 30.2344H13C13.5523 30.2344 14 29.7867 14 29.2344V19.2344C14 18.6821 13.5523 18.2344 13 18.2344H10Z" fill="#1A1A1A"/>
<path fill-rule="evenodd" clip-rule="evenodd" d="M36 19.2344H39C40.1046 19.2344 41 20.1298 41 21.2344V27.2344C41 28.3389 40.1046 29.2344 39 29.2344H36V19.2344ZM39 18.2344C40.6569 18.2344 42 19.5775 42 21.2344V27.2344C42 28.8912 40.6569 30.2344 39 30.2344H36C35.4477 30.2344 35 29.7867 35 29.2344V19.2344C35 18.6821 35.4477 18.2344 36 18.2344H39Z" fill="#1A1A1A"/>
<path fill-rule="evenodd" clip-rule="evenodd" d="M11.5 29.2344C11.5 34.4811 15.7533 38.7344 21 38.7344V39.7344C15.201 39.7344 10.5 35.0334 10.5 29.2344H11.5Z" fill="#1A1A1A"/>
<path fill-rule="evenodd" clip-rule="evenodd" d="M25 38.2344H22C21.4477 38.2344 21 38.6821 21 39.2344C21 39.7867 21.4477 40.2344 22 40.2344H25C25.5523 40.2344 26 39.7867 26 39.2344C26 38.6821 25.5523 38.2344 25 38.2344ZM22 37.2344C20.8954 37.2344 20 38.1298 20 39.2344C20 40.3389 20.8954 41.2344 22 41.2344H25C26.1046 41.2344 27 40.3389 27 39.2344C27 38.1298 26.1046 37.2344 25 37.2344H22Z" fill="#1A1A1A"/>
</svg>
