<svg width="408" height="320" viewBox="0 0 408 320" fill="none" xmlns="http://www.w3.org/2000/svg">
<g clip-path="url(#clip0_15028_47598)">
<path d="M0 62.041L298.404 99.714C312.876 101.541 325.206 111.101 330.58 124.661L408 320H0V62.041Z" fill="#DDDDDD"/>
<path d="M296.734 213.047C295.587 213.36 294.385 213.423 293.211 213.234C292.036 213.044 290.918 212.605 289.932 211.948C288.947 211.291 288.118 210.431 287.504 209.427C286.889 208.423 286.503 207.3 286.373 206.135L247.167 194.473L247.776 182.999L294.238 197.185C296.246 197.115 298.21 197.772 299.758 199.032C301.306 200.293 302.332 202.069 302.639 204.024C302.947 205.979 302.516 207.978 301.427 209.64C300.339 211.303 298.669 212.515 296.734 213.047V213.047Z" fill="#FFB6B6"/>
<path d="M164.735 153.862C160.765 150.599 166.578 134.427 165.01 129.739C164.917 129.456 164.828 129.171 164.743 128.885C164.566 128.28 164.606 127.634 164.856 127.054L179.591 120.228C183.431 121.773 186.968 123.963 190.046 126.702L212.81 152.309L235.425 172.427L245.348 176.784L278.231 191.229L277.89 192.197L277.887 192.2L274.273 202.539L274.273 202.545L281.503 207.509L257.832 203.997L242.176 197.637L227.102 191.513C204.845 178.32 168.225 171.482 164.735 153.862Z" fill="#B11116"/>
<path d="M175.333 287.41L175.136 287.167C174.57 283.579 175.333 287.41 175.333 287.41Z" fill="#2F2E41"/>
<path d="M185.384 326.118H130.41C126.139 315.66 123.175 308.181 123.175 308.181C123.175 308.181 122.455 315.507 121.427 326.118H71.7281C71.263 297.283 70.6118 267.676 70.3975 258.273L165.792 260.367L175.28 272.218C175.313 272.416 175.345 272.634 175.386 272.881C175.77 275.289 180.935 301.138 185.384 326.118Z" fill="#2F2E41"/>
<path d="M184.551 123.311L184.542 123.294C184.239 122.74 183.751 122.305 183.161 122.064C177.125 117.451 170.516 115.348 163.099 116.786C161.885 113.166 160.753 113.166 160.753 113.166L144.667 107.933L142.353 94.0127L102.718 92.6914L99.1161 110.063C99.1161 110.063 76.9624 113.974 76.9624 116.803C76.9624 119.631 80.6547 119.631 76.9624 119.631C73.2701 119.631 72.2813 116.399 69.0855 119.631C68.8117 119.903 68.5227 120.159 68.2198 120.399C68.1829 120.431 68.1419 120.46 68.105 120.492C64.4932 123.29 61.6548 126.939 59.8516 131.102C58.0483 135.265 57.3384 139.808 57.787 144.312L64.6014 211.078L71.8752 282.32L171.419 286.401L178.086 225.778L184.867 124.911C184.928 124.358 184.818 123.801 184.551 123.311Z" fill="#B11116"/>
<path d="M58.4874 207.111L68.2351 211.435C63.6525 215.096 56.6741 220.021 49.8393 222.3L38.9798 215.007C34.9347 199.644 37.4126 183.812 42.2742 170.425C44.9677 162.986 48.5395 155.885 52.9162 149.268C52.4679 144.763 53.1781 140.22 54.9813 136.057C56.7844 131.895 59.6226 128.246 63.2341 125.447C63.2751 125.415 63.312 125.387 63.349 125.354C66.9461 128.429 69.8845 132.179 71.9922 136.386C74.0999 140.593 75.3345 145.171 75.6238 149.854L75.8412 153.393L76.2761 160.368L77.3797 178.179L64.2925 198.221L58.4874 207.111Z" fill="#B11116"/>
<path d="M86.5295 283.152C86.6434 283.293 86.7882 283.406 86.9531 283.484C87.1179 283.562 87.2985 283.602 87.4813 283.601H154.082C154.264 283.6 154.444 283.56 154.608 283.483C154.773 283.406 154.918 283.293 155.032 283.154C155.147 283.015 155.229 282.852 155.272 282.678C155.315 282.503 155.317 282.322 155.28 282.146L154.246 277.309C154.203 277.112 154.111 276.928 153.978 276.775C153.844 276.622 153.674 276.504 153.483 276.432C153.345 276.379 153.197 276.351 153.048 276.352H88.511C88.3622 276.351 88.2147 276.379 88.0761 276.432C87.8848 276.504 87.7147 276.622 87.5814 276.775C87.4481 276.928 87.3559 277.112 87.313 277.309L86.2792 282.146C86.2424 282.321 86.2458 282.503 86.2891 282.677C86.3324 282.851 86.4145 283.013 86.5295 283.152Z" fill="#2F2E41"/>
<path d="M61.0312 174.875V250.542C61.032 251.506 61.4213 252.431 62.1136 253.113C62.8058 253.795 63.7445 254.178 64.7235 254.179H178.569C179.548 254.178 180.487 253.795 181.179 253.113C181.872 252.431 182.261 251.506 182.262 250.542V174.875C182.259 173.911 181.869 172.988 181.177 172.307C180.485 171.626 179.547 171.243 178.569 171.242H64.7235C63.7454 171.243 62.8076 171.626 62.1155 172.307C61.4235 172.988 61.0336 173.911 61.0312 174.875Z" fill="#3F3D56"/>
<path d="M107.404 239.332V280.774H136.881V239.332C136.882 239.034 136.785 238.743 136.606 238.503C136.426 238.263 136.173 238.086 135.884 237.998C135.748 237.954 135.605 237.932 135.462 237.934H108.828C108.451 237.933 108.089 238.08 107.822 238.342C107.555 238.604 107.405 238.959 107.404 239.33V239.332ZM118.908 253.571C118.916 252.754 119.251 251.974 119.84 251.399C120.429 250.824 121.225 250.501 122.054 250.501C122.884 250.501 123.68 250.824 124.269 251.399C124.858 251.974 125.193 252.754 125.201 253.571V258.38C125.197 259.199 124.864 259.983 124.274 260.561C123.684 261.139 122.886 261.463 122.054 261.463C121.223 261.463 120.425 261.139 119.835 260.561C119.245 259.983 118.912 259.199 118.908 258.38V253.571Z" fill="#2F2E41"/>
<path d="M124.608 91.1394C138.775 91.1394 150.26 79.8276 150.26 65.8739C150.26 51.9201 138.775 40.6084 124.608 40.6084C110.441 40.6084 98.9561 51.9201 98.9561 65.8739C98.9561 79.8276 110.441 91.1394 124.608 91.1394Z" fill="#FFB6B6"/>
<path d="M155.32 61.4553C152.554 62.301 149.888 62.7995 148.09 60.5651C146.291 58.3308 146.761 55.776 144.086 54.6989C141.926 53.8266 139.432 54.2004 137.254 55.0105C136.865 55.1529 136.485 55.3131 136.115 55.4734C135.907 55.2953 135.699 55.1262 135.473 54.9659C133.773 53.775 131.673 53.2716 129.608 53.5595C131.118 54.2779 132.36 55.4457 133.159 56.8976C132.418 57.2626 131.622 57.5354 130.909 57.9391C121.113 63.4865 110.218 65.7207 111.107 56.4615C114.072 64.1525 111.767 66.8942 107.42 73.9176L107.248 74.327C107.682 72.4844 104.632 72.3971 101.997 73.0274C100.051 73.493 101.311 77.9611 103.805 81.0389C98.2284 72.7692 89.8765 60.1431 97.0987 53.8087C98.1639 52.8745 98.8323 51.5564 99.0237 48.1829C99.1372 46.1827 102.594 45.6815 104.419 46.5717C104.683 43.5642 105.751 40.6791 107.513 38.209C109.274 35.7389 111.668 33.7717 114.451 32.5071C120.037 30.0592 125.717 33.8248 131.786 34.5545C135.153 34.9593 137.706 36.295 137.841 40.5275C137.93 43.346 142.242 44.3552 145.062 44.8537C146.852 45.1653 148.867 44.9783 150.295 46.091C151.949 47.3818 151.967 49.6517 151.958 51.8326C150.34 51.7871 148.744 52.2179 147.376 53.0699C149.051 53.1114 150.67 53.6721 152.003 54.6722C152.029 54.6878 152.053 54.7057 152.075 54.7256C152.563 58.3932 152.365 59.1676 155.32 61.4553Z" fill="#2F2E41"/>
<path d="M71.3556 212.954C70.8194 214 70.0589 214.919 69.1265 215.648C68.1941 216.376 67.1123 216.896 65.9557 217.173C64.7991 217.449 63.5954 217.474 62.4279 217.247C61.2604 217.02 60.1569 216.546 59.1938 215.857L29.6984 229.682L27.7217 221.54L57.7597 204.105C59.0569 202.594 60.8716 201.605 62.86 201.324C64.8484 201.043 66.8723 201.491 68.5482 202.581C70.224 203.672 71.4355 205.33 71.9529 207.242C72.4703 209.154 72.2578 211.186 71.3556 212.954L71.3556 212.954Z" fill="#FFB6B6"/>
<path d="M59.9901 170.959L39.2353 212.728L48.0066 208.813L54.1112 206.085L57.1717 217.537C57.1717 217.537 55.145 219.477 51.9492 222.026C47.3666 225.687 40.3882 230.613 33.5533 232.892C28.2036 234.678 22.9482 234.844 19.0016 231.514C11.5103 225.194 18.8334 200.097 25.9103 180.988C30.6487 168.191 35.2723 158.085 35.2723 158.085C35.2723 144.589 61.8644 125.183 66.7998 122.528C69.6182 121.017 70.3976 123.218 70.3976 123.218L54.9317 145.519L59.5553 163.985L60.864 169.201L59.9901 170.959Z" fill="#B11116"/>
<rect x="-6.52832" y="280.162" width="195.822" height="6.60172" rx="3.30086" fill="#2F2E41"/>
<rect x="67.5225" y="286.765" width="4.9367" height="55.2896" fill="#2F2E41"/>
</g>
<defs>
<clipPath id="clip0_15028_47598">
<rect width="408" height="320" fill="white"/>
</clipPath>
</defs>
</svg>
