<svg viewBox="0 0 660 482" fill="none" xmlns="http://www.w3.org/2000/svg">
<path opacity="0.5" d="M624.706 304.941C588.469 220.239 507.176 275.977 458.778 304.941C354.845 367.14 267.948 396.123 203.933 365.096C139.918 334.069 65.2965 238.977 33.8013 331.125C13.9984 389.064 33.8013 477 33.8013 477H624.706C624.706 477 647.867 359.078 624.706 304.941Z" fill="#E5E8E9"/>
<path fill-rule="evenodd" clip-rule="evenodd" d="M449.523 84.421C447.546 84.3792 445.565 84.4344 443.581 84.5825L443.506 83.5853C445.522 83.4349 447.534 83.3788 449.544 83.4212L449.523 84.421ZM461.291 85.8549C459.341 85.414 457.387 85.0767 455.429 84.8391L455.55 83.8464C457.541 84.0881 459.528 84.4311 461.511 84.8795L461.291 85.8549ZM437.701 85.2878C435.76 85.6071 433.816 86.011 431.869 86.4959L431.627 85.5255C433.6 85.0344 435.57 84.6249 437.539 84.3011L437.701 85.2878ZM469.819 88.4661C468.874 88.0993 467.928 87.7585 466.982 87.4432L467.298 86.4944C468.26 86.8149 469.221 87.1612 470.181 87.5339C471.155 87.912 472.108 88.3147 473.04 88.7415L472.624 89.6507C471.71 89.2322 470.775 88.8371 469.819 88.4661ZM426.154 88.1455C424.297 88.7538 422.437 89.4321 420.575 90.1773L420.204 89.2489C422.085 88.4962 423.964 87.8104 425.843 87.1951L426.154 88.1455ZM482.786 95.8996C481.237 94.6583 479.604 93.5071 477.883 92.4514L478.406 91.599C480.162 92.6767 481.83 93.852 483.411 95.1194L482.786 95.8996ZM415.062 92.5735C413.302 93.398 411.541 94.2792 409.777 95.2144L409.309 94.331C411.086 93.3884 412.863 92.4998 414.638 91.668L415.062 92.5735ZM404.541 98.1458C402.855 99.1378 401.169 100.177 399.482 101.26L398.941 100.418C400.639 99.3286 402.336 98.2829 404.033 97.284L404.541 98.1458ZM491.111 104.457C489.895 102.863 488.595 101.351 487.21 99.9248L487.927 99.2282C489.341 100.683 490.666 102.226 491.906 103.85L491.111 104.457ZM394.499 104.584C392.883 105.702 391.266 106.859 389.649 108.052L389.055 107.248C390.68 106.049 392.305 104.886 393.931 103.761L394.499 104.584ZM497.302 114.718C496.438 112.886 495.497 111.121 494.479 109.427L495.337 108.912C496.373 110.636 497.329 112.431 498.206 114.292L497.302 114.718ZM384.883 111.672C383.329 112.885 381.775 114.129 380.22 115.404L379.586 114.631C381.146 113.351 382.707 112.101 384.267 110.883L384.883 111.672ZM375.633 119.252C374.134 120.536 372.635 121.846 371.136 123.181L370.471 122.435C371.974 121.096 373.478 119.781 374.982 118.492L375.633 119.252ZM501.438 125.977C500.894 124.012 500.283 122.1 499.604 120.243L500.543 119.899C501.232 121.782 501.851 123.721 502.401 125.71L501.438 125.977ZM366.694 127.21C365.242 128.549 363.791 129.909 362.341 131.289L361.651 130.565C363.106 129.181 364.56 127.817 366.016 126.475L366.694 127.21ZM503.819 137.755C503.549 135.748 503.22 133.78 502.834 131.852L503.814 131.656C504.205 133.605 504.537 135.594 504.81 137.622L503.819 137.755ZM358.017 135.463C356.605 136.844 355.194 138.242 353.784 139.657L353.076 138.951C354.489 137.533 355.903 136.132 357.317 134.748L358.017 135.463ZM349.558 143.945C348.18 145.36 346.802 146.788 345.425 148.23L344.702 147.539C346.081 146.095 347.461 144.664 348.842 143.247L349.558 143.945ZM504.749 149.787C504.7 147.75 504.601 145.741 504.45 143.764L505.447 143.688C505.599 145.683 505.7 147.709 505.748 149.763L504.749 149.787ZM95.7209 146.929C96.3406 146.165 96.9748 145.412 97.6236 144.671L98.3761 145.329C97.7357 146.061 97.1094 146.805 96.4975 147.559L95.7209 146.929ZM88.9747 156.595C89.9841 154.907 91.0509 153.254 92.1752 151.641L92.9955 152.213C91.8848 153.806 90.8307 155.439 89.8331 157.109L88.9747 156.595ZM341.296 152.591C339.939 154.038 338.582 155.496 337.226 156.964L336.492 156.285C337.849 154.815 339.207 153.355 340.567 151.907L341.296 152.591ZM504.465 161.869C504.605 159.823 504.699 157.798 504.746 155.797L505.746 155.82C505.698 157.837 505.603 159.877 505.463 161.937L504.465 161.869ZM333.177 161.38C331.837 162.852 330.497 164.333 329.158 165.822L328.414 165.153C329.754 163.663 331.096 162.181 332.438 160.706L333.177 161.38ZM83.6206 167.094C84.3985 165.285 85.2326 163.506 86.123 161.758L87.014 162.212C86.1336 163.94 85.3087 165.7 84.5391 167.489L83.6206 167.094ZM503.164 173.842C503.462 171.824 503.72 169.82 503.936 167.833L504.93 167.941C504.712 169.941 504.453 171.958 504.154 173.988L503.164 173.842ZM325.17 170.282C323.843 171.773 322.517 173.27 321.193 174.773L320.443 174.111C321.768 172.608 323.095 171.109 324.422 169.617L325.17 170.282ZM79.6427 178.182C80.1946 176.292 80.8011 174.423 81.4623 172.577L82.4037 172.914C81.7493 174.741 81.149 176.591 80.6027 178.462L79.6427 178.182ZM317.246 179.268C315.932 180.77 314.619 182.276 313.308 183.785L312.553 183.129C313.865 181.619 315.179 180.113 316.494 178.609L317.246 179.268ZM500.983 185.705C501.419 183.72 501.817 181.745 502.179 179.781L503.162 179.962C502.799 181.937 502.398 183.924 501.96 185.919L500.983 185.705ZM76.9956 189.663C77.3292 187.723 77.7159 185.795 78.1559 183.885L79.1304 184.109C78.6947 186.001 78.3117 187.91 77.9811 189.832L76.9956 189.663ZM309.384 188.31C308.077 189.82 306.773 191.332 305.47 192.843L304.712 192.19C306.016 190.678 307.321 189.167 308.627 187.656L309.384 188.31ZM498.023 197.408C498.58 195.46 499.104 193.518 499.595 191.581L500.564 191.827C500.071 193.773 499.545 195.726 498.984 197.684L498.023 197.408ZM75.6313 201.359C75.7545 199.397 75.9293 197.441 76.156 195.494L77.1493 195.609C76.9247 197.539 76.7515 199.477 76.6294 201.421L75.6313 201.359ZM301.559 197.384C300.255 198.9 298.953 200.415 297.652 201.927L296.894 201.275L297.052 201.091C298.3 199.64 299.55 198.186 300.801 196.732L301.559 197.384ZM494.359 208.917C495.028 207.008 495.666 205.101 496.272 203.196L497.225 203.5C496.615 205.413 495.974 207.33 495.302 209.247L494.359 208.917ZM293.75 206.464C292.442 207.984 291.136 209.501 289.832 211.013L289.075 210.36C290.378 208.848 291.684 207.332 292.992 205.812L293.75 206.464ZM75.5077 213.134C75.4265 211.171 75.396 209.207 75.4164 207.245L76.4164 207.255C76.3961 209.2 76.4264 211.147 76.5068 213.093L75.5077 213.134ZM490.046 220.201C490.819 218.334 491.563 216.466 492.277 214.597L493.211 214.954C492.494 216.831 491.746 218.708 490.97 220.584L490.046 220.201ZM285.926 215.534C284.61 217.054 283.297 218.568 281.985 220.075L281.231 219.418C282.542 217.912 283.855 216.399 285.17 214.88L285.926 215.534ZM76.5991 224.858C76.3168 222.916 76.0845 220.966 75.9025 219.011L76.8982 218.918C77.0786 220.856 77.3089 222.79 77.5887 224.715L76.5991 224.858ZM278.051 224.58C276.727 226.091 275.405 227.593 274.086 229.086L273.337 228.423C274.655 226.932 275.976 225.431 277.299 223.921L278.051 224.58ZM485.127 231.236C485.998 229.415 486.841 227.588 487.657 225.758L488.571 226.165C487.751 228.003 486.904 229.838 486.029 231.668L485.127 231.236ZM78.8977 236.409C78.4143 234.508 77.9808 232.592 77.5973 230.664L78.5781 230.468C78.9582 232.38 79.3879 234.279 79.8669 236.163L78.8977 236.409ZM270.105 233.566C268.769 235.062 267.435 236.547 266.104 238.018L265.362 237.347C266.692 235.878 268.024 234.395 269.359 232.9L270.105 233.566ZM479.63 241.997C480.595 240.223 481.534 238.443 482.447 236.656L483.338 237.111C482.421 238.905 481.478 240.694 480.509 242.475L479.63 241.997ZM82.4107 247.651C81.7244 245.814 81.0879 243.956 80.5015 242.078L81.4561 241.78C82.037 243.64 82.6676 245.482 83.3474 247.3L82.4107 247.651ZM262.055 242.461C260.701 243.936 259.35 245.396 258.002 246.84L257.271 246.157C258.617 244.716 259.966 243.258 261.319 241.785L262.055 242.461ZM473.578 252.454C474.635 250.735 475.666 249.004 476.672 247.266L477.538 247.766C476.527 249.513 475.491 251.25 474.43 252.978L473.578 252.454ZM253.864 251.227C252.485 252.674 251.109 254.103 249.736 255.511L249.02 254.813C250.39 253.408 251.763 251.982 253.141 250.537L253.864 251.227ZM87.1563 258.429C86.2632 256.684 85.4202 254.909 84.6276 253.107L85.543 252.705C86.3278 254.489 87.1624 256.246 88.0465 257.974L87.1563 258.429ZM466.986 262.579C468.132 260.918 469.253 259.244 470.35 257.559L471.188 258.105C470.086 259.797 468.96 261.479 467.81 263.147L466.986 262.579ZM245.487 259.815C244.072 261.229 242.66 262.618 241.253 263.982L240.557 263.264C241.961 261.904 243.368 260.518 244.78 259.107L245.487 259.815ZM93.1582 268.572C92.0548 266.95 91.002 265.289 89.9999 263.594L90.8607 263.085C91.8522 264.762 92.8938 266.405 93.9851 268.01L93.1582 268.572ZM236.866 268.163C235.401 269.533 233.941 270.874 232.485 272.182L231.817 271.438C233.267 270.135 234.722 268.799 236.182 267.433L236.866 268.163ZM459.865 272.338C461.098 270.741 462.307 269.13 463.493 267.504L464.301 268.094C463.109 269.726 461.895 271.345 460.657 272.949L459.865 272.338ZM100.416 277.856C99.1039 276.394 97.8421 274.886 96.631 273.336L97.4191 272.72C98.6164 274.253 99.8635 275.743 101.16 277.188L100.416 277.856ZM227.932 276.179C226.399 277.493 224.871 278.768 223.349 280.001L222.72 279.225C224.234 277.997 225.755 276.728 227.281 275.42L227.932 276.179ZM452.222 281.69C453.54 280.166 454.837 278.624 456.11 277.065L456.885 277.698C455.605 279.264 454.303 280.813 452.978 282.345L452.222 281.69ZM108.899 286.044C107.386 284.783 105.922 283.468 104.509 282.102L105.204 281.383C106.6 282.732 108.045 284.031 109.539 285.276L108.899 286.044ZM218.603 283.727C216.978 284.959 215.36 286.141 213.749 287.27L213.175 286.451C214.775 285.33 216.383 284.156 217.998 282.93L218.603 283.727ZM444.064 290.594C445.467 289.149 446.849 287.684 448.208 286.2L448.946 286.875C447.579 288.367 446.191 289.839 444.781 291.291L444.064 290.594ZM118.497 292.883C116.806 291.864 115.163 290.784 113.569 289.647L114.149 288.833C115.723 289.955 117.345 291.021 119.013 292.027L118.497 292.883ZM208.781 290.59C207.039 291.698 205.304 292.738 203.578 293.708L203.088 292.836C204.797 291.876 206.516 290.845 208.245 289.746L208.781 290.59ZM129.034 298.173C127.198 297.422 125.407 296.607 123.661 295.731L124.11 294.837C125.832 295.702 127.6 296.506 129.413 297.247L129.034 298.173ZM435.396 299C436.883 297.643 438.349 296.263 439.793 294.862L440.49 295.58C439.038 296.988 437.564 298.375 436.069 299.738L435.396 299ZM198.263 296.475C196.414 297.36 194.576 298.157 192.747 298.861L192.388 297.927C194.19 297.234 196.004 296.448 197.831 295.573L198.263 296.475ZM140.259 301.791C138.328 301.325 136.438 300.792 134.59 300.198L134.896 299.246C136.721 299.833 138.587 300.358 140.494 300.819L140.259 301.791ZM186.988 300.772C186.025 301.039 185.064 301.278 184.107 301.488C183.121 301.705 182.142 301.908 181.168 302.097L180.977 301.115C181.943 300.927 182.915 300.726 183.893 300.512C184.832 300.306 185.774 300.071 186.72 299.809L186.988 300.772ZM151.868 303.732C149.883 303.54 147.934 303.283 146.023 302.964L146.187 301.978C148.076 302.293 150.002 302.547 151.964 302.736L151.868 303.732ZM175.403 303.071C173.411 303.356 171.447 303.583 169.511 303.754L169.423 302.758C171.34 302.589 173.286 302.364 175.261 302.081L175.403 303.071ZM426.225 306.852C427.795 305.593 429.344 304.308 430.873 302.999L431.523 303.758C429.987 305.074 428.429 306.366 426.851 307.632L426.225 306.852ZM163.645 304.104C161.659 304.165 159.704 304.165 157.782 304.106L157.812 303.106C159.714 303.165 161.649 303.165 163.615 303.105L163.645 304.104ZM416.566 314.091C418.216 312.939 419.846 311.759 421.456 310.552L422.056 311.352C420.437 312.566 418.798 313.752 417.138 314.911L416.566 314.091ZM406.435 320.65C408.163 319.616 409.87 318.552 411.559 317.459L412.102 318.298C410.404 319.398 408.686 320.468 406.949 321.508L406.435 320.65ZM395.862 326.461C397.661 325.557 399.442 324.621 401.203 323.652L401.685 324.529C399.913 325.503 398.121 326.445 396.311 327.354L395.862 326.461ZM384.884 331.457C386.748 330.695 388.594 329.897 390.421 329.065L390.836 329.975C388.996 330.812 387.139 331.615 385.263 332.383L384.884 331.457ZM373.552 335.576C375.47 334.965 377.371 334.316 379.255 333.631L379.597 334.571C377.701 335.26 375.787 335.913 373.856 336.529L373.552 335.576ZM361.927 338.765C363.887 338.313 365.831 337.822 367.759 337.293L368.024 338.257C366.083 338.79 364.125 339.284 362.151 339.74L361.927 338.765ZM350.079 340.987C352.067 340.699 354.04 340.371 355.997 340.004L356.181 340.987C354.211 341.356 352.224 341.686 350.223 341.977L350.079 340.987ZM338.086 342.222C340.095 342.098 342.09 341.934 344.071 341.731L344.173 342.726C342.179 342.93 340.17 343.096 338.147 343.22L338.086 342.222ZM329 342.5C330.02 342.5 331.036 342.49 332.049 342.469L332.069 343.469C331.05 343.489 330.027 343.5 329 343.5V342.5Z" fill="#BEC5C8"/>
<path d="M141.766 331.43C141.766 331.43 126.818 349.257 131.757 369.693C136.695 390.128 124.44 414.645 124.44 414.645" stroke="#A67C52" stroke-width="2" stroke-linecap="round"/>
<path d="M119.516 342.629C119.516 342.629 120.62 364.31 131.471 368.612" stroke="#A67C52" stroke-width="2" stroke-linecap="round"/>
<path d="M142.787 338.792C148.464 339.974 154.024 336.33 155.206 330.653C156.388 324.976 152.744 319.415 147.067 318.233C141.39 317.051 135.829 320.695 134.647 326.372C133.465 332.05 137.109 337.61 142.787 338.792Z" fill="#FFF1C1"/>
<path d="M152.149 333.653C151.471 334.592 150.615 335.387 149.629 335.995C148.643 336.603 147.548 337.01 146.405 337.194C145.262 337.379 144.093 337.336 142.967 337.069C141.84 336.801 140.777 336.315 139.839 335.637C138.9 334.959 138.104 334.103 137.497 333.117C136.889 332.132 136.482 331.036 136.297 329.893C136.113 328.75 136.156 327.582 136.423 326.455C136.69 325.328 137.177 324.265 137.855 323.327C138.017 323.102 138.187 322.885 138.368 322.681C139.853 320.944 141.954 319.851 144.228 319.633C146.502 319.415 148.773 320.088 150.56 321.511C152.348 322.934 153.513 324.995 153.811 327.261C154.108 329.526 153.515 331.818 152.156 333.654L152.149 333.653Z" fill="#FFCD1E"/>
<path d="M149.209 328.762L148.289 328.133C148.431 327.243 148 326.366 147.123 325.745L145.518 324.623C144.908 324.19 144.495 324.279 144.07 324.847L143.925 325.123L143.156 324.613C142.964 324.485 142.695 324.517 142.567 324.709L142.558 324.751C142.431 324.944 142.462 325.213 142.654 325.34L143.424 325.851L142.863 326.653L142.21 326.211C142.018 326.083 141.749 326.115 141.621 326.307L141.613 326.349C141.485 326.542 141.517 326.811 141.709 326.938L142.361 327.381L140.559 329.938C140.499 330.014 140.44 330.089 140.423 330.173C140.405 330.257 140.379 330.382 140.361 330.466C140.386 330.559 140.41 330.652 140.435 330.744C140.501 330.846 140.535 330.896 140.61 330.956C140.685 331.015 140.769 331.033 140.895 331.059C140.979 331.076 141.071 331.052 141.206 331.036C141.299 331.012 141.4 330.945 141.451 330.912C141.552 330.846 141.569 330.762 141.629 330.686L142.87 328.931L144.207 329.866C145.052 330.436 145.942 330.578 146.667 330.247L147.704 330.944C147.896 331.072 148.165 331.041 148.293 330.848L148.302 330.806C148.429 330.614 148.398 330.345 148.205 330.217L147.478 329.715C147.588 329.607 147.707 329.457 147.826 329.306C147.885 329.231 147.954 329.114 148.013 329.039L148.74 329.54C148.933 329.668 149.202 329.637 149.329 329.444L149.338 329.402C149.433 329.159 149.401 328.89 149.209 328.762ZM144.368 328.674L143.49 328.053L145.123 325.679L146.385 326.555C146.544 326.632 146.686 326.793 146.828 326.953C146.927 327.106 147.018 327.3 147.067 327.485C147.116 327.67 147.072 327.88 147.037 328.048C146.994 328.258 146.875 328.408 146.756 328.558C146.136 329.436 145.48 329.431 144.368 328.674Z" fill="#FEF1E7"/>
<path d="M117.092 352.235C120.197 353.894 124.059 352.722 125.718 349.617C127.377 346.512 126.205 342.65 123.1 340.991C119.995 339.332 116.133 340.504 114.474 343.609C112.815 346.714 113.987 350.576 117.092 352.235Z" fill="#FFF1C1"/>
<path d="M123.424 350.842C122.869 351.272 122.234 351.59 121.556 351.775C120.878 351.961 120.17 352.011 119.473 351.923C118.776 351.835 118.102 351.61 117.492 351.262C116.881 350.914 116.345 350.448 115.915 349.893C115.484 349.338 115.166 348.703 114.981 348.025C114.795 347.347 114.745 346.639 114.833 345.942C114.922 345.244 115.146 344.571 115.494 343.961C115.843 343.35 116.308 342.814 116.863 342.383C116.996 342.28 117.132 342.183 117.273 342.095C118.434 341.337 119.845 341.06 121.207 341.321C122.569 341.583 123.776 342.363 124.574 343.497C125.372 344.632 125.699 346.032 125.485 347.402C125.271 348.772 124.534 350.006 123.428 350.844L123.424 350.842Z" fill="#FFCD1E"/>
<path d="M122.548 347.49L122.119 346.967C122.354 346.472 122.253 345.888 121.848 345.376L121.105 344.448C120.824 344.092 120.568 344.073 120.224 344.331L120.092 344.467L119.731 344.039C119.641 343.931 119.479 343.904 119.371 343.994L119.359 344.017C119.252 344.107 119.224 344.269 119.315 344.377L119.675 344.805L119.211 345.177L118.907 344.808C118.817 344.701 118.655 344.673 118.548 344.763L118.535 344.786C118.428 344.876 118.4 345.039 118.491 345.146L118.795 345.515L117.308 346.697C117.261 346.73 117.213 346.764 117.189 346.81C117.164 346.856 117.127 346.925 117.103 346.971C117.101 347.029 117.1 347.087 117.098 347.145C117.119 347.215 117.13 347.251 117.164 347.298C117.197 347.346 117.243 347.37 117.312 347.407C117.358 347.431 117.416 347.433 117.497 347.447C117.555 347.448 117.626 347.427 117.661 347.416C117.731 347.395 117.756 347.349 117.803 347.315L118.826 346.505L119.446 347.278C119.84 347.755 120.334 347.989 120.813 347.921L121.298 348.504C121.388 348.611 121.55 348.639 121.658 348.549L121.67 348.526C121.777 348.435 121.805 348.273 121.714 348.166L121.377 347.75C121.459 347.705 121.554 347.638 121.649 347.571C121.697 347.537 121.756 347.481 121.804 347.447L122.142 347.863C122.232 347.971 122.394 347.998 122.501 347.908L122.514 347.885C122.61 347.76 122.638 347.597 122.548 347.49ZM119.743 346.611L119.338 346.1L120.695 344.996L121.28 345.722C121.36 345.794 121.415 345.912 121.47 346.029C121.502 346.135 121.522 346.264 121.518 346.38C121.515 346.496 121.454 346.611 121.405 346.703C121.344 346.818 121.249 346.885 121.154 346.952C120.642 347.357 120.261 347.242 119.743 346.611Z" fill="#FEF1E7"/>
<path d="M115.5 337.123C122.104 343.769 122.57 354.014 122.57 354.014C122.57 354.014 112.328 353.485 105.724 346.84C99.119 340.195 98.6529 329.95 98.6529 329.95C98.6529 329.95 108.895 330.478 115.5 337.123Z" fill="#3EB88C"/>
<mask id="mask0_2236_3525" style="mask-type:alpha" maskUnits="userSpaceOnUse" x="98" y="329" width="25" height="26">
<path d="M115.5 337.123C122.104 343.769 122.57 354.014 122.57 354.014C122.57 354.014 112.328 353.485 105.724 346.84C99.119 340.195 98.6529 329.95 98.6529 329.95C98.6529 329.95 108.895 330.478 115.5 337.123Z" fill="#3EB88C"/>
</mask>
<g mask="url(#mask0_2236_3525)">
<path d="M135.354 341.308L122.941 355.139C122.941 355.139 116.553 346.456 111.737 341.61C106.921 336.765 98.2765 330.323 98.2765 330.323L110.673 321.74L135.354 341.308Z" fill="#73CEAD"/>
</g>
<path d="M139.043 324.764C140.957 330.82 138.053 337.137 138.053 337.137C138.053 337.137 132.047 333.635 130.134 327.579C128.22 321.523 131.124 315.206 131.124 315.206C131.124 315.206 137.13 318.708 139.043 324.764Z" fill="#3EB88C"/>
<mask id="mask1_2236_3525" style="mask-type:alpha" maskUnits="userSpaceOnUse" x="129" y="315" width="11" height="23">
<path d="M139.043 324.764C140.957 330.82 138.053 337.137 138.053 337.137C138.053 337.137 132.047 333.635 130.134 327.579C128.22 321.523 131.124 315.206 131.124 315.206C131.124 315.206 137.13 318.708 139.043 324.764Z" fill="#3EB88C"/>
</mask>
<g mask="url(#mask1_2236_3525)">
<path d="M149.704 333.456L137.927 337.931C137.927 337.931 136.778 330.714 135.382 326.298C133.987 321.881 130.782 315.314 130.782 315.314L140.918 313.996L149.704 333.456Z" fill="#73CEAD"/>
</g>
<path d="M149.81 340.572C143.486 341.162 137.925 336.989 137.925 336.989C137.925 336.989 142.618 331.859 148.942 331.269C155.266 330.679 160.826 334.852 160.826 334.852C160.826 334.852 156.133 339.982 149.81 340.572Z" fill="#3EB88C"/>
<mask id="mask2_2236_3525" style="mask-type:alpha" maskUnits="userSpaceOnUse" x="137" y="331" width="24" height="10">
<path d="M149.81 340.572C143.486 341.162 137.925 336.989 137.925 336.989C137.925 336.989 142.618 331.859 148.942 331.269C155.266 330.679 160.826 334.852 160.826 334.852C160.826 334.852 156.133 339.982 149.81 340.572Z" fill="#3EB88C"/>
</mask>
<g mask="url(#mask2_2236_3525)">
<path d="M139.061 349.155L137.177 336.698C137.177 336.698 144.473 337.1 149.085 336.67C153.696 336.239 160.793 334.495 160.793 334.495L159.938 344.68L139.061 349.155Z" fill="#73CEAD"/>
</g>
<path d="M147.412 368.637C141.657 375.343 132.06 376.547 132.06 376.547C132.06 376.547 131.792 366.877 137.546 360.171C143.301 353.465 152.899 352.262 152.899 352.262C152.899 352.262 153.166 361.931 147.412 368.637Z" fill="#3EB88C"/>
<mask id="mask3_2236_3525" style="mask-type:alpha" maskUnits="userSpaceOnUse" x="132" y="352" width="21" height="25">
<path d="M147.412 368.637C141.657 375.343 132.06 376.547 132.06 376.547C132.06 376.547 131.792 366.877 137.546 360.171C143.301 353.465 152.899 352.262 152.899 352.262C152.899 352.262 153.166 361.931 147.412 368.637Z" fill="#3EB88C"/>
</mask>
<g mask="url(#mask3_2236_3525)">
<path d="M144.961 387.617L131.029 376.98C131.029 376.98 138.716 370.325 142.912 365.435C147.109 360.545 152.519 351.936 152.519 351.936L161.516 362.951L144.961 387.617Z" fill="#73CEAD"/>
</g>
<path d="M181 445.754C181 469.933 161.524 477 137.5 477C113.476 477 94 469.933 94 445.754C94 415.299 116.848 378.89 137.5 378.89C158.152 378.89 181 415.299 181 445.754Z" fill="#DC6266"/>
<path d="M116.57 373.485L121.5 386H153.5L156.461 377.118C157.826 373.021 155.391 368.634 151.192 367.626C148.2 366.908 145.045 367.47 142.485 369.177L137.476 372.516C134.652 374.399 131.116 374.872 127.896 373.799L119.063 370.854C117.452 370.317 115.947 371.905 116.57 373.485Z" fill="#DC6266"/>
<path d="M138.5 387.5C130 396.5 143 412.5 120 417.5" stroke="#BE353A" stroke-width="4" stroke-linecap="round"/>
<path d="M143 385.5C137 391 150 403 141.5 415" stroke="#BE353A" stroke-width="4" stroke-linecap="round"/>
<path d="M122 386.5C123.333 387.333 130 390 137.5 386.5C145.275 382.872 153 385.5 153 385.5" stroke="#BE353A" stroke-width="4" stroke-linecap="round"/>
<path d="M184.5 477C202.449 477 217 462.449 217 444.5C217 426.551 202.449 412 184.5 412C166.551 412 152 426.551 152 444.5C152 462.449 166.551 477 184.5 477Z" fill="#FFF1C1"/>
<path d="M209.628 455.52C208.165 458.792 206.073 461.743 203.47 464.207C200.866 466.67 197.804 468.596 194.456 469.875C191.108 471.155 187.541 471.762 183.959 471.663C180.376 471.564 176.849 470.761 173.577 469.298C170.305 467.836 167.353 465.743 164.89 463.14C162.427 460.537 160.501 457.474 159.221 454.126C157.942 450.779 157.334 447.212 157.433 443.63C157.532 440.047 158.336 436.519 159.798 433.247C160.147 432.462 160.525 431.699 160.947 430.965C164.35 424.766 170.026 420.13 176.78 418.034C183.534 415.938 190.838 416.546 197.153 419.73C203.467 422.913 208.299 428.424 210.631 435.1C212.962 441.777 212.61 449.098 209.65 455.52H209.628Z" fill="#FFCD1E"/>
<path d="M197.633 442.555L194.449 441.229C194.316 438.443 192.459 436.055 189.408 434.729L183.837 432.341C181.714 431.413 180.52 431.943 179.592 433.933L179.327 434.862L176.673 433.8C176.01 433.535 175.214 433.8 174.949 434.464V434.596C174.684 435.26 174.949 436.055 175.612 436.321L178.265 437.382L177.071 440.168L174.816 439.239C174.153 438.974 173.357 439.239 173.092 439.902V440.035C172.827 440.698 173.092 441.494 173.755 441.76L176.01 442.688L172.163 451.576C172.031 451.841 171.898 452.106 171.898 452.372C171.898 452.637 171.898 453.035 171.898 453.3C172.031 453.566 172.163 453.831 172.296 454.096C172.561 454.362 172.694 454.494 172.959 454.627C173.224 454.76 173.49 454.76 173.888 454.76C174.153 454.76 174.418 454.627 174.816 454.494C175.082 454.362 175.347 454.096 175.48 453.964C175.745 453.698 175.745 453.433 175.878 453.168L178.531 447.066L183.173 449.055C186.092 450.249 188.878 450.117 190.867 448.657L194.449 450.117C195.112 450.382 195.908 450.117 196.173 449.453V449.321C196.439 448.657 196.173 447.862 195.51 447.596L192.99 446.535C193.255 446.137 193.52 445.606 193.786 445.076C193.918 444.811 194.051 444.413 194.184 444.147L196.704 445.208C197.367 445.474 198.163 445.208 198.429 444.545V444.413C198.561 443.617 198.296 442.821 197.633 442.555ZM182.908 445.341L179.857 444.015L183.306 435.79L187.684 437.647C188.214 437.78 188.745 438.178 189.275 438.576C189.673 438.974 190.071 439.504 190.337 440.035C190.602 440.566 190.602 441.229 190.602 441.76C190.602 442.423 190.337 442.953 190.071 443.484C188.745 446.535 186.755 446.933 182.908 445.341Z" fill="#FFF9E5"/>
<rect width="44.9999" height="8.49999" rx="2" transform="matrix(-1 0 0 1 118.875 468.5)" fill="#FFDB5B"/>
<path d="M118.875 470.5C118.875 469.395 117.979 468.5 116.875 468.5H88.2499V477H116.875C117.979 477 118.875 476.105 118.875 475V470.5Z" fill="#FFE897"/>
<path d="M116.375 468.5H114.5V477H116.375V468.5Z" fill="#FFCD1E"/>
<path d="M110.125 468.5H108.25V477H110.125V468.5Z" fill="#FFCD1E"/>
<path d="M103.875 468.5H102V477H103.875V468.5Z" fill="#FFCD1E"/>
<path d="M118.875 469.714C118.875 469.044 118.331 468.5 117.661 468.5H75.0892C74.4186 468.5 73.875 469.044 73.875 469.714H118.875Z" fill="#E69E19"/>
<rect width="44.9999" height="8.49999" rx="2" transform="matrix(-1 0 0 1 122 460)" fill="#FFDB5B"/>
<path d="M122 462C122 460.895 121.104 460 120 460H91.3749V468.5H120C121.104 468.5 122 467.605 122 466.5V462Z" fill="#FFE897"/>
<path d="M119.5 460H117.625V468.5H119.5V460Z" fill="#FFCD1E"/>
<path d="M113.25 460H111.375V468.5H113.25V460Z" fill="#FFCD1E"/>
<path d="M107 460H105.125V468.5H107V460Z" fill="#FFCD1E"/>
<path d="M122 461.214C122 460.544 121.456 460 120.786 460H78.2142C77.5436 460 76.9999 460.544 76.9999 461.214H122Z" fill="#E69E19"/>
<rect width="44.9999" height="8.49999" rx="2" transform="matrix(-1 0 0 1 117.625 451.5)" fill="#FFDB5B"/>
<path d="M117.625 453.5C117.625 452.395 116.729 451.5 115.625 451.5H86.9999V460H115.625C116.729 460 117.625 459.105 117.625 458V453.5Z" fill="#FFE897"/>
<path d="M115.125 451.5H113.25V460H115.125V451.5Z" fill="#FFCD1E"/>
<path d="M108.875 451.5H107V460H108.875V451.5Z" fill="#FFCD1E"/>
<path d="M102.625 451.5H100.75V460H102.625V451.5Z" fill="#FFCD1E"/>
<path d="M117.625 452.714C117.625 452.044 117.081 451.5 116.411 451.5H73.8392C73.1686 451.5 72.6249 452.044 72.6249 452.714H117.625Z" fill="#E69E19"/>
<rect width="44.9999" height="8.49999" rx="2" transform="matrix(-1 0 0 1 117 443)" fill="#FFDB5B"/>
<path d="M117 445C117 443.895 116.104 443 115 443H86.3749V451.5H115C116.104 451.5 117 450.605 117 449.5V445Z" fill="#FFE897"/>
<path d="M114.5 443H112.625V451.5H114.5V443Z" fill="#FFCD1E"/>
<path d="M108.25 443H106.375V451.5H108.25V443Z" fill="#FFCD1E"/>
<path d="M102 443H100.125V451.5H102V443Z" fill="#FFCD1E"/>
<path d="M117 445C117 443.895 116.104 443 115 443H74C72.8954 443 72 443.895 72 445V445.429H117V445Z" fill="#FFCD1E"/>
<rect x="370.5" y="142.5" width="159" height="107" rx="3.5" fill="#F9FAFB" stroke="#E5E8E9"/>
<path d="M370 146C370 143.791 371.791 142 374 142H526C528.209 142 530 143.791 530 146V152H370V146Z" fill="#E5E8E9"/>
<circle cx="380.5" cy="147.5" r="2.5" fill="#BEC5C8"/>
<circle cx="389.5" cy="147.5" r="2.5" fill="#BEC5C8"/>
<circle cx="398.5" cy="147.5" r="2.5" fill="#BEC5C8"/>
<rect x="391" y="214" width="10" height="20" fill="#E5E8E9"/>
<rect x="409" y="198" width="10" height="36" fill="#E5E8E9"/>
<rect x="427" y="206" width="10" height="28" fill="#E5E8E9"/>
<rect x="445" y="182" width="10" height="52" fill="#E5E8E9"/>
<rect x="463" y="182" width="10" height="52" fill="#48B4AF"/>
<rect x="481" y="195" width="10" height="39" fill="#E79194"/>
<rect x="499" y="171" width="10" height="63" fill="#48B4AF"/>
<path d="M264 470L263 436L282 436L279.5 470H264Z" fill="#D5A384"/>
<path d="M294.012 451.519L299.577 437.053L312.935 447.068L307.369 467.098L294.012 451.519Z" fill="#D5A384"/>
<path d="M290.673 458.196C287.791 454.319 293.054 447.416 295.297 444.787C295.746 444.26 296.564 444.382 296.876 445C299.127 449.47 301.454 453.903 304.03 458.196C305.841 461.213 306.256 459.743 306.256 459.308C306.256 455.832 308.157 452.581 311 451.5C313.32 450.618 312.5 456.5 312.5 456.5C312.5 456.5 314.99 460.756 318.5 463.76C324.408 468.814 332.746 465.979 333.82 473.68C334 474.971 333.82 476 333.82 476H311.822C311.822 476 291.5 459.308 290.673 458.196Z" fill="#273B58"/>
<path d="M263 113.5C268.794 105.032 285.614 109.182 288.5 120C292.952 136.692 278.5 156 278.5 156L267.5 153C267.5 153 259.456 156.382 256.5 148.5C253.5 140.5 244.95 133.326 250.5 125C255.5 117.5 256.5 123 263 113.5Z" fill="#233840"/>
<path d="M258.167 283.266C258.167 271.892 259.506 254.334 259.506 254.334L324.5 257.5L325.5 268.5C325.5 268.5 342.427 357 340.762 370.061C336.5 403.5 319 453.5 319 453.5L297.351 443.73C297.351 443.73 293.332 441.833 294.012 440C307 405 308.482 364.498 308.482 364.498L294.012 301.942C289.56 355 285.08 409.33 285.5 451.5C285.562 457.767 265 454.906 259.506 454.906C259.506 454.906 258.836 396.675 258.167 364.498C257.462 330.609 258.167 301.07 258.167 283.266Z" fill="#273B58"/>
<path d="M336.649 160.5C336.649 162.269 314 163.966 314 163.966L315.964 189C315.964 189 357.911 178.401 357.911 176.04C360.5 171 347 105 347 105C347 105 351.066 94.9582 361.493 85.7545C364.403 83.1887 366.385 72.8435 363.806 75.4041C361.488 77.7076 360.331 81.1526 353.374 85.7596C348.716 88.8447 340.618 91.6521 339.461 92.6702C335.295 96.326 336.603 103.021 336.603 103.021L336.649 160.5Z" fill="#D5A384"/>
<path d="M264.56 170.105C264.56 170.105 283.287 166.55 294.012 165.312C322.952 161.974 332.97 160.861 332.97 160.861L340.961 185.528C340.961 185.528 319.267 191.013 311.71 192.318C315.049 202.333 315 233 327 265.5C327 265.5 302.47 273.01 288.5 274C273.784 275.043 255.5 274 255.5 274L256.5 218.5C256.5 218.5 254.363 218.995 250.936 232.078C250.059 235.426 225.5 227.5 225.5 227.5C225.5 227.5 235.61 187.83 244.849 179.783C249.119 176.064 260.538 170.402 264.56 170.105Z" fill="#89CBF0"/>
<path d="M224.35 246.307C225.415 235.286 227.882 228.22 227.882 228.22L246 232.7C246 232.7 245.15 234.825 243.541 238.989C243.204 240.153 284 237 284 237C284 237 292.5 229 295.793 228C298.427 227.2 314.098 229.435 310.848 231.265C307.556 233.117 301.153 229.89 298.937 232.26C301.96 234 307.926 232.445 315 231.265C319.589 230.498 310.199 240.726 304.5 243.5C300.707 243.114 285.5 246.307 285.5 246.307C285.5 246.307 259.781 251.802 235.141 255.489C222.987 257.309 223.581 254.27 224.35 246.307Z" fill="#D5A384"/>
<path d="M279.5 176C271.888 177.497 259.801 171.26 260.272 171.012C263.139 169.504 269.566 165.304 264 147.5L283.994 149.733C283.994 167.538 288.203 164.932 294.864 165.086C294.864 165.086 286.722 174.58 279.5 176Z" fill="#D5A384"/>
<path d="M280.5 165C273.822 166.875 268.411 153.072 268.411 153.072C270.184 154.386 280.528 156.798 283.994 150.846C283.994 150.846 284.368 163.914 280.5 165Z" fill="#7A5B3C"/>
<path d="M286.289 136.011C288.212 147.434 286.476 158.574 280 159.5C270.682 160.832 261.365 152.9 259.441 141.483C257.517 130.061 262.07 121.745 269.487 120.234C276.898 118.723 284.37 124.589 286.293 136.011H286.289Z" fill="#EDB593"/>
<path d="M398.453 54.106L329.1 100.402C325.988 102.469 321.833 101.645 319.792 98.5648L294.016 59.9015C291.97 56.8169 292.829 52.6695 295.936 50.6026L365.289 4.30212C368.401 2.23521 372.556 3.05927 374.598 6.13937L400.373 44.8027C402.419 47.8873 401.56 52.0346 398.453 54.1015V54.106Z" fill="#EA4444"/>
<path d="M334.118 77.2023L322.022 85.2357C321.676 85.4654 321.244 85.3798 321.019 85.0376L319.373 82.5519C319.144 82.2097 319.234 81.7819 319.58 81.5522L331.676 73.5187C332.023 73.2891 332.454 73.3747 332.679 73.7169L334.325 76.2026C334.554 76.5448 334.464 76.9726 334.118 77.2023Z" fill="#FAEAEB"/>
<path d="M352.348 65.098L340.252 73.1315C339.905 73.3611 339.478 73.2756 339.249 72.9334L337.599 70.4477C337.369 70.1054 337.459 69.6776 337.805 69.448L349.902 61.4145C350.248 61.1849 350.679 61.2704 350.904 61.6126L352.555 64.0983C352.869 64.382 352.78 64.8143 352.348 65.098Z" fill="#FAEAEB"/>
<path d="M370.668 52.9353L358.486 61.0228C358.14 61.2524 357.708 61.1669 357.483 60.8246L355.833 58.3389C355.603 57.9967 355.693 57.5689 356.04 57.3393L368.136 49.3058C368.482 49.0761 368.909 49.1617 369.139 49.5039L370.789 51.9896C371.104 52.2733 371.014 52.7056 370.668 52.9353Z" fill="#FAEAEB"/>
<path d="M387.751 41.493L375.672 49.5489C375.326 49.7786 374.894 49.693 374.67 49.3508L373.015 46.8696C372.785 46.5274 372.875 46.0996 373.222 45.8699L385.3 37.814C385.646 37.5843 386.073 37.6699 386.303 38.0121L387.957 40.4933C388.272 40.777 388.097 41.2633 387.751 41.493Z" fill="#FAEAEB"/>
<path d="M392.207 48.2565L326.456 91.9182C326.114 92.1479 325.682 92.0623 325.453 91.7201L323.803 89.2344C323.573 88.8922 323.663 88.4644 324.01 88.2347L389.846 44.519C390.192 44.2893 390.624 44.3749 390.849 44.7171L392.495 47.2028C392.724 47.545 392.549 48.0314 392.202 48.261L392.207 48.2565Z" fill="#FAEAEB"/>
<path d="M317.665 61.5947L311.356 65.7825C310.146 66.5841 308.428 66.2464 307.633 65.0485L303.482 58.7938C302.686 57.596 303.041 55.8803 304.251 55.0743L310.56 50.8864C311.769 50.0849 313.487 50.4226 314.283 51.6204L318.434 57.8752C319.23 59.073 318.874 60.7931 317.665 61.5947Z" fill="#FFCD1E"/>
<ellipse cx="259.132" cy="129.688" rx="5.76181" ry="7.79395" transform="rotate(34.7136 259.132 129.688)" fill="#233840"/>
<ellipse cx="258.279" cy="140.42" rx="2.65201" ry="4.95387" transform="rotate(-20.5074 258.279 140.42)" fill="#EDB593"/>
<path d="M293.5 116.5C293.5 121.502 285.055 131 277.208 131C269.361 131 263 126.945 263 121.943C263 116.941 269.361 112.886 277.208 112.886C285.055 112.886 282 121.943 293.5 116.5Z" fill="#233840"/>
<path d="M262.756 463.508C262.916 463.176 263.168 462.891 263.478 462.692C271.441 457.602 274.034 457.621 280.609 463.64C280.864 463.873 281.055 464.173 281.159 464.501L283.963 473.311C284.269 474.275 283.807 475.311 282.865 475.68C280.212 476.717 274.783 478.571 270 478.5C265.811 478.438 261.397 477.112 258.942 476.244C257.871 475.865 257.41 474.647 257.901 473.622L262.756 463.508Z" fill="#273B58"/>
<path fill-rule="evenodd" clip-rule="evenodd" d="M444.85 360.114C444.892 359.078 444.943 358.031 445.001 356.973L445.999 357.027C445.941 358.081 445.891 359.124 445.849 360.155L444.85 360.114ZM444.705 372.467C444.665 370.458 444.657 368.399 444.683 366.29L445.683 366.302C445.657 368.401 445.665 370.449 445.704 372.447L444.705 372.467ZM445.411 384.82C445.216 382.822 445.057 380.764 444.938 378.645L445.937 378.589C446.055 380.694 446.212 382.738 446.406 384.723L445.411 384.82ZM447.215 397.104C446.818 395.136 446.465 393.095 446.157 390.98L447.146 390.836C447.452 392.934 447.802 394.957 448.195 396.907L447.215 397.104ZM450.455 409.098C449.796 407.209 449.187 405.231 448.631 403.16L449.597 402.901C450.146 404.949 450.748 406.904 451.399 408.768L450.455 409.098ZM455.583 420.414C454.576 418.676 453.627 416.824 452.741 414.854L453.653 414.444C454.526 416.384 455.459 418.206 456.449 419.913L455.583 420.414ZM463.097 430.33C461.669 428.896 460.303 427.321 459.007 425.598L459.806 424.997C461.075 426.684 462.411 428.224 463.805 429.624L463.097 430.33ZM518.163 434.527C518.424 434.617 518.563 434.902 518.473 435.163L517.005 439.417C516.915 439.678 516.63 439.817 516.369 439.726C516.108 439.636 515.969 439.352 516.059 439.091L517.138 435.965C516.558 436.236 515.977 436.499 515.393 436.753L514.994 435.836C515.558 435.59 516.121 435.336 516.683 435.074L513.583 434.005C513.322 433.915 513.184 433.63 513.274 433.369C513.364 433.108 513.648 432.969 513.909 433.059L518.163 434.527ZM473.141 437.691C471.311 436.758 469.536 435.667 467.825 434.409L468.418 433.603C470.084 434.829 471.813 435.892 473.595 436.8L473.141 437.691ZM509.585 438.986C507.593 439.649 505.592 440.211 503.591 440.663L503.37 439.688C505.338 439.243 507.307 438.691 509.269 438.037L509.585 438.986ZM485.003 441.496C482.939 441.174 480.907 440.7 478.921 440.066L479.225 439.114C481.161 439.731 483.142 440.194 485.157 440.508L485.003 441.496ZM497.451 441.704C495.363 441.937 493.284 442.044 491.225 442.015L491.239 441.015C493.254 441.043 495.291 440.939 497.34 440.71L497.451 441.704Z" fill="#BEC5C8"/>
<rect x="0.683013" y="-0.183013" width="85" height="39" rx="3.5" transform="matrix(0.866025 0.5 0.5 -0.866025 496.944 410.138)" fill="white" stroke="#E5E8E9"/>
<rect x="534.911" y="394.742" width="50" height="3" rx="1.5" transform="rotate(30 534.911 394.742)" fill="#E5E8E9"/>
<rect x="531.411" y="400.804" width="30" height="3" rx="1.5" transform="rotate(30 531.411 400.804)" fill="#E5E8E9"/>
<rect x="526.411" y="409.464" width="29" height="8" transform="rotate(30 526.411 409.464)" fill="#E5E8E9"/>
<path d="M517.39 388.09L528.648 394.59L525.019 387.876L517.39 388.09Z" stroke="#BEC5C8" stroke-width="1.2" stroke-linecap="round" stroke-linejoin="round"/>
<path d="M519.122 389.09L516.622 393.42" stroke="#BEC5C8" stroke-width="1.2" stroke-linecap="round" stroke-linejoin="round"/>
<path d="M521.72 390.59L519.22 394.92" stroke="#BEC5C8" stroke-width="1.2" stroke-linecap="round" stroke-linejoin="round"/>
<path d="M524.318 392.09L521.818 396.42" stroke="#BEC5C8" stroke-width="1.2" stroke-linecap="round" stroke-linejoin="round"/>
<path d="M526.916 393.59L524.416 397.92" stroke="#BEC5C8" stroke-width="1.2" stroke-linecap="round" stroke-linejoin="round"/>
<path d="M515.323 392.67L525.715 398.67" stroke="#BEC5C8" stroke-width="1.2" stroke-linecap="round" stroke-linejoin="round"/>
<path d="M513.457 393.902L525.581 400.902" stroke="#BEC5C8" stroke-width="1.2" stroke-linecap="round" stroke-linejoin="round"/>
<circle cx="589.5" cy="420.5" r="4.5" fill="#48B4AF"/>
<path d="M234.214 80.2455L221.897 60.4136L214.14 68.1808L230.744 93.292L234.214 80.2455Z" fill="#E9F6F5"/>
<path d="M182 156L166 173L175.5 178.5L195.5 156H182Z" fill="#FCDADC"/>
<circle cx="119.5" cy="87.5" r="46.5" fill="#E9F6F5"/>
<g clip-path="url(#clip0_2236_3525)">
<path d="M141.857 73.2136C141.857 73.2136 138.522 99.7664 133.032 105.739C126.442 112.911 121.658 111.884 118.997 115.571C116.342 111.884 111.571 112.929 104.961 105.739C99.466 99.7664 96.1428 73.2136 96.1428 73.2136C110.599 66.2451 118.991 58.4286 118.991 58.4286C119.257 58.6928 127.617 66.3557 141.857 73.2136Z" fill="#73CEAD"/>
<path opacity="0.1" d="M119.058 58.4347V115.226C116.409 111.562 111.648 112.6 105.053 105.455C99.5689 99.5074 96.2528 73.121 96.2528 73.121C110.678 66.1961 119.052 58.4286 119.052 58.4286L119.058 58.4347Z" fill="#AFE2D0"/>
<path d="M99.5714 75.4186C99.5714 75.4186 102.406 97.7257 107.077 102.749C112.684 108.782 116.751 107.895 119.012 111C121.28 107.895 125.347 108.782 130.954 102.749C135.619 97.7257 138.429 75.4186 138.429 75.4186C126.157 69.5638 119.012 63 119.012 63C119.012 63 111.868 69.5638 99.5714 75.4186Z" fill="#73CEAD"/>
<path opacity="0.2" d="M138.429 75.4218C138.429 75.4218 135.585 97.7285 130.946 102.753C125.335 108.781 121.27 107.901 119 111V63C119.187 63.2017 126.308 69.651 138.429 75.4218Z" fill="white"/>
<path d="M127.476 77.8495L127.496 86.0966L125.247 86.1L125.227 77.847C125.22 74.7125 122.911 72.1636 120.077 72.1933C117.243 72.223 114.959 74.7459 114.971 77.8872L114.991 86.1402L112.743 86.1377L112.722 77.8906C112.711 73.3928 116.011 69.7412 120.08 69.7359C124.149 69.7305 127.465 73.3518 127.476 77.8495Z" fill="#E5E8E9"/>
<path d="M112.732 79.8089L114.979 79.8089L114.995 85.916L112.747 85.9135L112.732 79.8089Z" fill="#9DABB1"/>
<path d="M127.482 79.8089L127.502 85.3814L125.253 85.3848L125.234 79.8089L127.482 79.8089Z" fill="#9DABB1"/>
<path d="M130.377 83.0459L109.857 83.0603L109.908 100.714L130.429 100.7L130.377 83.0459Z" fill="#3EB88C"/>
<path d="M121.009 91.7621L121.881 95.9836L118.235 95.9867L119.084 91.7602C118.749 91.5431 118.491 91.2189 118.349 90.8367C118.206 90.4545 118.188 90.035 118.296 89.6416C118.405 89.2482 118.634 88.9024 118.949 88.6563C119.263 88.4103 119.647 88.2774 120.042 88.2778C120.437 88.2782 120.821 88.4119 121.137 88.6585C121.453 88.9052 121.682 89.2515 121.792 89.6451C121.901 90.0387 121.884 90.4582 121.743 90.8401C121.601 91.2221 121.344 91.5457 121.009 91.7621Z" fill="#ECF9F4"/>
<path d="M144.211 101.1C142.991 101.721 141.626 101.99 140.259 101.877C138.893 101.765 137.577 101.275 136.45 100.46L122.632 106.788L118.494 104.851L120.756 100.044L123.671 101.069L124.631 98.0825L127.547 99.1127L128.502 96.127L133.195 93.7537C133.232 92.3749 133.624 91.0359 134.331 89.8732C135.039 88.7104 136.036 87.7653 137.221 87.1341C138.407 86.5029 139.738 86.2081 141.08 86.2797C142.422 86.3514 143.727 86.7869 144.861 87.542C145.995 88.2971 146.919 89.3447 147.538 90.5783C148.156 91.8119 148.448 93.1874 148.384 94.5648C148.319 95.9421 147.9 97.2721 147.17 98.4195C146.439 99.5668 145.423 100.49 144.225 101.096L144.211 101.1ZM143.619 95.467C144.07 95.2393 144.444 94.8782 144.693 94.4294C144.942 93.9806 145.054 93.4642 145.017 92.9455C144.979 92.4267 144.793 91.929 144.482 91.515C144.17 91.101 143.748 90.7895 143.268 90.6197C142.787 90.4499 142.271 90.4295 141.784 90.5611C141.296 90.6926 140.86 90.9703 140.529 91.3589C140.199 91.7475 139.989 92.2297 139.927 92.7444C139.865 93.2592 139.953 93.7835 140.18 94.2511C140.486 94.8783 141.02 95.3586 141.665 95.5866C142.31 95.8145 143.012 95.7715 143.619 95.467Z" fill="#FFCD1E"/>
</g>
<path d="M538.5 177C538.5 172.858 541.858 169.5 546 169.5H573.5V197C573.5 201.142 570.142 204.5 566 204.5H546C541.858 204.5 538.5 201.142 538.5 197V177Z" fill="#BCE3E2" stroke="#BCE3E2"/>
<path d="M556 185.125V195.25" stroke="#20A39E" stroke-width="1.5" stroke-linecap="round" stroke-linejoin="round"/>
<path d="M556 178.75V181.375" stroke="#20A39E" stroke-width="1.5" stroke-linecap="round" stroke-linejoin="round"/>
<path d="M556 185.125C557.036 185.125 557.875 184.286 557.875 183.25C557.875 182.214 557.036 181.375 556 181.375C554.964 181.375 554.125 182.214 554.125 183.25C554.125 184.286 554.964 185.125 556 185.125Z" stroke="#20A39E" stroke-width="1.5" stroke-linecap="round" stroke-linejoin="round"/>
<path d="M562.75 192.625V195.25" stroke="#20A39E" stroke-width="1.5" stroke-linecap="round" stroke-linejoin="round"/>
<path d="M562.75 178.75V188.875" stroke="#20A39E" stroke-width="1.5" stroke-linecap="round" stroke-linejoin="round"/>
<path d="M562.75 192.625C563.786 192.625 564.625 191.786 564.625 190.75C564.625 189.714 563.786 188.875 562.75 188.875C561.714 188.875 560.875 189.714 560.875 190.75C560.875 191.786 561.714 192.625 562.75 192.625Z" stroke="#20A39E" stroke-width="1.5" stroke-linecap="round" stroke-linejoin="round"/>
<path d="M549.25 189.625V195.25" stroke="#20A39E" stroke-width="1.5" stroke-linecap="round" stroke-linejoin="round"/>
<path d="M549.25 178.75V185.875" stroke="#20A39E" stroke-width="1.5" stroke-linecap="round" stroke-linejoin="round"/>
<path d="M549.25 189.625C550.286 189.625 551.125 188.786 551.125 187.75C551.125 186.714 550.286 185.875 549.25 185.875C548.214 185.875 547.375 186.714 547.375 187.75C547.375 188.786 548.214 189.625 549.25 189.625Z" stroke="#20A39E" stroke-width="1.5" stroke-linecap="round" stroke-linejoin="round"/>
<g clip-path="url(#clip1_2236_3525)">
<path d="M602.994 314.731L439.857 270.204L421.991 335.661L585.129 380.187L602.994 314.731Z" fill="#FFCD1E"/>
<path d="M595.297 319.123L443.236 277.62L428.394 331.999L580.455 373.502L595.297 319.123Z" fill="#FFE897"/>
<path d="M584.788 380.095L421.99 335.662L421.368 337.941L584.165 382.374L584.788 380.095Z" fill="#E69E19"/>
<path opacity="0.3" d="M483.151 282.021L462.004 276.249L444.138 341.706L465.286 347.477L483.151 282.021Z" fill="#E6B91D"/>
<path d="M397.009 248.772L414.955 238.522L411.108 252.62L397.009 248.772Z" fill="#FFCD1E"/>
<path d="M466.535 252.6L414.704 238.453L410.804 252.739L396.958 248.96L381.603 305.219L446.894 323.039L444.16 333.056L455.403 336.124L474.336 266.755C474.738 265.282 474.855 263.746 474.681 262.237C474.506 260.727 474.043 259.273 473.318 257.958C472.593 256.643 471.621 255.493 470.457 254.573C469.293 253.654 467.96 252.983 466.535 252.6Z" fill="#FFE897"/>
<path d="M426.938 317.535L446.721 322.934C449.754 323.762 452.381 325.587 454.025 328.007C455.668 330.428 456.194 333.245 455.485 335.84L455.33 336.411C454.621 339.006 452.737 341.166 450.092 342.416C447.447 343.665 444.256 343.902 441.224 343.075L421.441 337.675L426.938 317.535Z" fill="#E69E19"/>
<rect width="56.2137" height="2.73343" rx="1.36672" transform="matrix(0.964712 0.263306 -0.262887 0.964827 465.467 310.869)" fill="#FFF9E5"/>
<rect width="56.2137" height="2.73343" rx="1.36672" transform="matrix(0.964712 0.263306 -0.262887 0.964827 463.252 318.768)" fill="#FFF9E5"/>
<rect x="511.022" y="305.854" width="39.6348" height="2.73343" rx="1.36672" transform="rotate(15.2663 511.022 305.854)" fill="#FFF9E5"/>
<rect x="492.61" y="300.613" width="15.033" height="2.73328" rx="1.36664" transform="rotate(15.2663 492.61 300.613)" fill="#FFF9E5"/>
<rect x="490.638" y="308.714" width="58.4851" height="2.73343" rx="1.36672" transform="rotate(15.2663 490.638 308.714)" fill="#FFF9E5"/>
<rect x="553.803" y="317.802" width="32.1179" height="2.73343" rx="1.36672" transform="rotate(15.2663 553.803 317.802)" fill="#FFF9E5"/>
<rect x="551.582" y="325.7" width="32.1179" height="2.73343" rx="1.36672" transform="rotate(15.2663 551.582 325.7)" fill="#FFF9E5"/>
<rect width="119.041" height="2.73343" rx="1.36672" transform="matrix(0.964712 0.263306 -0.262887 0.964827 460.617 328.19)" fill="#FFF9E5"/>
<path d="M580.156 342.817L522.248 326.599L519.3 337.127L577.207 353.345L580.156 342.817Z" fill="#FFCD1E"/>
<path d="M484.189 299.516L482.162 299.008C481.841 297.367 480.519 296.113 478.571 295.594L475.018 294.665C473.663 294.3 472.992 294.72 472.607 295.981L472.527 296.555L470.842 296.158C470.421 296.059 469.966 296.286 469.864 296.703L469.875 296.781C469.773 297.198 470.001 297.647 470.423 297.746L472.108 298.144L471.632 299.901L470.197 299.547C469.776 299.448 469.321 299.675 469.219 300.092L469.23 300.171C469.128 300.587 469.356 301.036 469.778 301.135L471.213 301.489L469.671 307.098C469.614 307.267 469.557 307.436 469.58 307.594C469.603 307.751 469.638 307.987 469.661 308.144C469.763 308.29 469.866 308.436 469.969 308.582C470.151 308.716 470.242 308.783 470.413 308.838C470.584 308.894 470.743 308.871 470.982 308.836C471.141 308.812 471.289 308.711 471.517 308.597C471.665 308.495 471.801 308.314 471.869 308.224C472.006 308.044 471.983 307.886 472.04 307.717L473.105 303.865L476.066 304.639C477.922 305.091 479.584 304.768 480.653 303.729L482.93 304.28C483.352 304.38 483.807 304.153 483.909 303.736L483.897 303.657C483.999 303.241 483.771 302.792 483.35 302.692L481.744 302.284C481.869 302.024 481.982 301.686 482.096 301.348C482.153 301.179 482.198 300.932 482.255 300.763L483.86 301.171C484.282 301.271 484.737 301.044 484.839 300.627L484.827 300.548C484.838 300.064 484.61 299.615 484.189 299.516ZM475.585 302.458L473.638 301.939L474.998 296.758L477.788 297.476C478.118 297.508 478.471 297.698 478.825 297.887C479.098 298.089 479.383 298.368 479.588 298.66C479.793 298.952 479.851 299.345 479.897 299.66C479.954 300.053 479.841 300.391 479.727 300.729C479.194 302.655 478.034 303.066 475.585 302.458Z" fill="#FFF9E5"/>
</g>
<path d="M538.5 158C552.583 158 564 146.583 564 132.5C564 118.417 552.583 107 538.5 107C524.417 107 513 118.417 513 132.5C513 146.583 524.417 158 538.5 158Z" fill="#FFF1C1"/>
<path d="M558.216 141.146C557.068 143.713 555.426 146.029 553.384 147.962C551.341 149.895 548.938 151.406 546.312 152.41C543.685 153.414 540.886 153.891 538.075 153.813C535.265 153.735 532.497 153.105 529.929 151.957C527.362 150.81 525.046 149.168 523.114 147.125C521.181 145.083 519.67 142.68 518.666 140.053C517.662 137.426 517.185 134.628 517.263 131.817C517.341 129.006 517.971 126.238 519.119 123.671C519.392 123.055 519.689 122.456 520.02 121.88C522.69 117.016 527.144 113.379 532.443 111.734C537.742 110.09 543.473 110.567 548.428 113.065C553.382 115.563 557.173 119.887 559.002 125.125C560.832 130.363 560.556 136.107 558.233 141.146H558.216Z" fill="#FFCD1E"/>
<path d="M548.804 130.974L546.306 129.933C546.202 127.748 544.745 125.874 542.351 124.833L537.98 122.96C536.314 122.231 535.378 122.648 534.649 124.209L534.441 124.938L532.359 124.105C531.839 123.897 531.214 124.105 531.006 124.625V124.729C530.798 125.25 531.006 125.874 531.527 126.082L533.608 126.915L532.671 129.101L530.902 128.372C530.382 128.164 529.757 128.372 529.549 128.893V128.997C529.341 129.517 529.549 130.142 530.069 130.35L531.839 131.078L528.82 138.052C528.716 138.26 528.612 138.468 528.612 138.676C528.612 138.884 528.612 139.197 528.612 139.405C528.716 139.613 528.82 139.821 528.925 140.029C529.133 140.238 529.237 140.342 529.445 140.446C529.653 140.55 529.861 140.55 530.174 140.55C530.382 140.55 530.59 140.446 530.902 140.342C531.11 140.238 531.318 140.029 531.423 139.925C531.631 139.717 531.631 139.509 531.735 139.301L533.816 134.513L537.459 136.074C539.749 137.011 541.935 136.907 543.496 135.762L546.306 136.907C546.827 137.115 547.451 136.907 547.659 136.386V136.282C547.867 135.762 547.659 135.138 547.139 134.929L545.161 134.097C545.369 133.784 545.578 133.368 545.786 132.952C545.89 132.744 545.994 132.431 546.098 132.223L548.076 133.056C548.596 133.264 549.22 133.056 549.429 132.535V132.431C549.533 131.807 549.325 131.182 548.804 130.974ZM537.251 133.16L534.857 132.119L537.563 125.666L540.998 127.123C541.414 127.227 541.831 127.54 542.247 127.852C542.559 128.164 542.871 128.58 543.08 128.997C543.288 129.413 543.288 129.933 543.288 130.35C543.288 130.87 543.08 131.286 542.871 131.703C541.831 134.097 540.269 134.409 537.251 133.16Z" fill="#FFF9E5"/>
<defs>
<clipPath id="clip0_2236_3525">
<rect width="64" height="64" fill="white" transform="translate(87 55)"/>
</clipPath>
<clipPath id="clip1_2236_3525">
<rect width="233.478" height="112.992" fill="white" transform="translate(383.752 230) rotate(15.2663)"/>
</clipPath>
</defs>
</svg>
