<svg width="105" height="50" viewBox="0 0 115 50" fill="none" xmlns="http://www.w3.org/2000/svg" tabindex="0">
                            <path d="M42.9083 10.7361C46.7188 10.7355 50.5299 10.7361 54.3405 10.7361C56.6198 10.7201 58.91 10.8108 61.1588 11.2025C62.8396 11.5046 64.5226 11.9693 65.9928 12.8547C66.6938 13.28 67.3361 13.8096 67.8495 14.4482C68.313 15.016 68.6683 15.6682 68.9081 16.3581C69.2221 17.2635 69.3342 18.2275 69.3215 19.1814C69.3037 19.979 69.187 20.7794 68.9121 21.532C68.6195 22.3535 68.1347 23.1038 67.5189 23.7247C66.4333 24.8056 65.0085 25.4801 63.5549 25.9288C63.2053 26.044 62.8441 26.1175 62.4934 26.2241C64.131 26.5308 65.768 27.0143 67.1768 27.9208C67.8536 28.3615 68.4677 28.9066 68.9455 29.5571C69.3848 30.1426 69.7062 30.8102 69.9195 31.5075C70.1875 32.3929 70.2795 33.3233 70.2611 34.2452C70.2415 35.2629 70.0903 36.2863 69.7344 37.2441C69.2704 38.5303 68.4004 39.6608 67.2895 40.4659C65.9986 41.4071 64.4599 41.9505 62.9051 42.2828C61.7039 42.536 60.4786 42.6705 59.2527 42.7281C58.3476 42.7823 57.4409 42.7578 56.5352 42.7629C54.0909 42.7629 51.646 42.7629 49.2017 42.7629C47.1024 42.7578 45.003 42.7737 42.9043 42.7549C42.9135 32.0822 42.9043 21.4088 42.9083 10.7361ZM51.577 16.5559C51.5741 18.9402 51.5776 21.325 51.5753 23.7087C52.232 23.7099 52.8892 23.7093 53.5464 23.7099C54.6889 23.6968 55.8384 23.7629 56.9723 23.5918C57.8146 23.4659 58.6748 23.2498 59.3729 22.7429C59.972 22.3165 60.3676 21.6409 60.4947 20.9248C60.6442 20.109 60.5942 19.223 60.1853 18.4847C59.8242 17.8376 59.1946 17.3763 58.5127 17.1027C57.5409 16.7059 56.4806 16.589 55.4382 16.5565C54.1507 16.5548 52.8639 16.5542 51.577 16.5559ZM51.5753 29.2429C51.5793 31.8062 51.5707 34.3701 51.5799 36.9334C52.6454 36.9265 53.7114 36.9322 54.7769 36.9305C55.9557 36.9385 57.1459 36.8843 58.293 36.5964C59.0675 36.3969 59.8478 36.0633 60.3774 35.4465C60.9087 34.8433 61.1272 34.0314 61.1583 33.2446C61.1939 32.4795 61.0536 31.6796 60.6091 31.0394C60.1715 30.4009 59.4758 29.983 58.7496 29.7389C57.5892 29.3416 56.3495 29.2663 55.1317 29.2424C53.9454 29.2435 52.7604 29.2418 51.5753 29.2429Z" fill="red"></path>
                            <path d="M74.5107 10.7389C79.178 10.7343 83.8458 10.7383 88.5137 10.7371C90.0231 10.7212 91.5388 10.7696 93.0326 11.0017C94.2884 11.1961 95.5321 11.5119 96.6971 12.0216C97.7453 12.48 98.728 13.1032 99.5439 13.9048C100.317 14.6568 100.927 15.5684 101.345 16.5576C101.728 17.4623 101.955 18.4264 102.064 19.3996C102.202 20.63 102.18 21.8785 101.984 23.1009C101.834 24.0074 101.572 24.8985 101.177 25.7314C100.361 27.4794 98.9218 28.9042 97.2221 29.8175C96.2957 30.321 95.2952 30.6824 94.2689 30.9264C92.8906 31.2617 91.468 31.3802 90.0518 31.3985C87.872 31.3996 85.6927 31.3991 83.5135 31.3991C83.5106 35.0615 83.5123 38.7235 83.5123 42.3854C83.5095 42.5102 83.5008 42.6357 83.4968 42.7617C80.5028 42.7617 77.5082 42.7565 74.5142 42.7639C74.4975 40.9259 74.5119 39.0866 74.5073 37.248C74.5101 28.4116 74.5038 19.5752 74.5107 10.7389ZM83.5135 16.7297C83.5106 19.5199 83.5141 22.3107 83.5118 25.1015C84.7549 25.1026 85.9986 25.1015 87.2418 25.102C88.0336 25.1129 88.8294 25.0735 89.6079 24.9224C90.2548 24.7947 90.8971 24.5901 91.4565 24.2349C91.8786 23.9692 92.2431 23.6089 92.499 23.1813C92.836 22.6334 92.9958 21.9954 93.0487 21.3609C93.0976 20.5975 93.0591 19.8101 92.7756 19.0901C92.5312 18.4447 92.0614 17.8877 91.464 17.537C90.893 17.1961 90.2439 17.008 89.5924 16.8894C88.7437 16.7354 87.8783 16.7178 87.0181 16.7286C85.8509 16.7292 84.6819 16.7292 83.5135 16.7297Z" fill="red"></path>
                            <path d="M106.033 10.7424C109.019 10.727 112.005 10.739 114.991 10.7361C114.992 20.5908 114.991 30.4454 114.992 40.3006C114.995 41.1187 114.986 41.9368 114.996 42.755C112.01 42.7726 109.023 42.7589 106.036 42.7618C106.033 32.089 106.038 21.4157 106.033 10.7424Z" fill="red"></path>
                        </svg>