<svg width="115" height="50" viewBox="0 0 115 50" fill="none" xmlns="http://www.w3.org/2000/svg" tabindex="0">
                            <path d="M16.5331 0.0200315C16.8787 -0.0307096 17.2438 -0.00619425 17.5618 0.146029C18.0718 0.370088 18.499 0.822768 18.6025 1.37693C18.6744 1.83018 18.5381 2.30965 18.2437 2.66313C18.1621 2.76404 18.0586 2.84386 17.9677 2.93565C19.5611 3.08845 21.1814 3.45789 22.5355 4.3393C22.673 4.42026 22.788 4.53599 22.9306 4.60726C24.2306 4.75207 25.5589 5.01205 26.6911 5.69392C27.2051 6.01148 27.668 6.43052 27.9733 6.95447C28.2631 7.44591 28.4092 8.01889 28.3821 8.58788C28.4028 9.02516 28.2815 9.45846 28.0854 9.84728C27.8094 10.4077 27.3724 10.8781 26.8728 11.2498C26.3972 11.5998 25.8608 11.8667 25.2984 12.048C25.1541 12.0998 25.0017 12.1278 24.862 12.1916C25.4008 12.2469 25.9482 12.3154 26.4536 12.5172C26.4933 12.6238 26.5042 12.739 26.526 12.8501C26.6502 13.5183 26.775 14.1865 26.9084 14.853C24.2203 14.5115 21.5178 14.2703 18.8078 14.219C18.1793 14.1785 17.5486 14.1973 16.9189 14.1928C16.452 14.1962 15.9834 14.1819 15.5177 14.2173C14.5149 14.2213 13.5155 14.2914 12.5144 14.3353C11.7566 14.3997 10.997 14.4476 10.2403 14.5223C9.11963 14.6312 8.00011 14.7549 6.88576 14.9174C6.83171 14.9231 6.77823 14.922 6.72476 14.9214C6.90473 14.1301 7.03928 13.329 7.19453 12.5331C7.38026 12.4425 7.59358 12.4134 7.79368 12.3627C8.16111 12.2783 8.53716 12.2435 8.90803 12.1854C8.12891 12.0046 7.37681 11.6728 6.74201 11.1837C6.10031 10.6876 5.57131 10.0092 5.37581 9.21558C5.28956 8.91057 5.32061 8.5913 5.31716 8.2783C5.35396 7.55538 5.68343 6.85868 6.19001 6.34158C6.84781 5.66028 7.74193 5.25834 8.64353 4.99837C9.33641 4.79882 10.0511 4.68309 10.7676 4.60669C10.8366 4.5759 10.8918 4.52345 10.9533 4.48126C11.8601 3.83018 12.929 3.44078 14.0135 3.19506C14.5793 3.07533 15.1531 2.98924 15.7293 2.93622C15.4498 2.70133 15.2169 2.39802 15.133 2.03885C15.0197 1.64945 15.0715 1.21444 15.2888 0.869518C15.5619 0.435083 16.0248 0.119803 16.5331 0.0200315ZM13.0429 5.36553C12.4753 5.77545 11.9814 6.31479 11.7273 6.97214C11.5933 7.28571 11.5392 7.6255 11.5243 7.96359C11.5254 8.7401 11.8687 9.49323 12.4052 10.0502C12.929 10.6175 13.6179 11.0098 14.3395 11.2766C14.8857 11.467 15.4567 11.5884 16.0346 11.6284C15.5263 10.8615 15.348 9.93679 15.2411 9.03999C15.1784 8.39574 15.1675 7.7458 15.2146 7.09928C15.2923 6.15401 15.4607 5.18708 15.9276 4.34671C14.9024 4.44363 13.8864 4.77203 13.0429 5.36553ZM17.7705 4.34728C18.1598 5.0417 18.334 5.83018 18.4341 6.61182C18.4507 6.83246 18.4927 7.05139 18.4881 7.27374C18.4852 7.80452 18.5013 8.33645 18.4755 8.86667C18.4214 9.30053 18.3737 9.73668 18.2644 10.1603C18.1379 10.674 17.9631 11.1848 17.6618 11.6255C18.1822 11.6067 18.694 11.4864 19.189 11.3325C19.9078 11.0981 20.5897 10.7293 21.1377 10.2082C21.5701 9.79711 21.9105 9.28172 22.0692 8.70589C22.1923 8.26233 22.2055 7.7897 22.0893 7.34329C21.9214 6.64603 21.4787 6.03941 20.9319 5.5816C20.0469 4.84785 18.909 4.45618 17.7705 4.34728ZM8.63951 6.2401C8.07256 6.50407 7.56081 6.92881 7.29113 7.49894C7.04733 8.01775 6.98178 8.61581 7.10138 9.1751C7.21753 9.73725 7.55161 10.2429 8.00068 10.5998C8.59581 11.0759 9.34273 11.3256 10.0902 11.4408C10.74 11.5269 11.403 11.5468 12.0521 11.4442C11.6376 11.2686 11.2299 11.0713 10.8561 10.8188C10.2001 10.3861 9.63196 9.78058 9.37033 9.03257C8.99256 7.96872 9.25821 6.73896 9.95223 5.86097C9.49798 5.91 9.05466 6.05082 8.63951 6.2401ZM23.7448 5.8604C24.2226 6.47898 24.5049 7.25264 24.4963 8.03428C24.5066 8.65857 24.2933 9.2783 23.9311 9.78685C23.7453 10.0599 23.5015 10.2863 23.2623 10.5126C22.7782 10.8997 22.2291 11.1996 21.6569 11.4391C21.8432 11.4995 22.0416 11.4699 22.2331 11.5012C22.6638 11.5371 23.0956 11.4989 23.5234 11.4516C24.1599 11.3507 24.7987 11.1842 25.3496 10.8416C25.8866 10.5172 26.3357 10.0235 26.5278 9.42254C26.6778 8.94534 26.6951 8.42596 26.5623 7.94306C26.4289 7.39289 26.0804 6.90657 25.621 6.57533C25.0736 6.18081 24.4152 5.94477 23.7448 5.8604Z" fill="#D5B527"></path>
                            <path d="M16.9814 15.9823C17.1792 15.98 17.4063 15.9749 17.6167 15.9771C18.3159 15.9925 19.0169 15.9686 19.7149 16.0153C21.2318 16.0398 22.7457 16.1396 24.2574 16.2559C26.4068 16.4315 28.5521 16.6807 30.6819 17.0216C31.3932 20.7656 32.0262 24.5233 32.6766 28.2782C33.0382 30.415 33.4039 32.5512 33.7627 34.6886C33.838 35.1265 33.9519 35.5632 33.9416 36.0113C33.9387 36.2417 33.9484 36.4737 33.93 36.704C33.8426 37.3477 33.6287 37.9817 33.2596 38.5216C32.8623 39.0991 32.3425 39.582 31.7836 40.0034C30.7744 40.7445 29.7372 41.4463 28.7073 42.159C25.3459 44.4657 21.9672 46.7479 18.5862 49.0273C18.1256 49.3363 17.6668 49.6476 17.2033 49.952C17.1004 50.0216 16.9998 49.9207 16.9158 49.8694C14.5158 48.3044 12.1261 46.7234 9.73865 45.1408C7.4973 43.6453 5.25078 42.1573 3.03415 40.6271C2.53333 40.2736 2.0187 39.9344 1.5679 39.5176C1.16713 39.1579 0.804304 38.7496 0.531179 38.285C0.161454 37.6385 -0.0340463 36.891 -0.000121279 36.1482C-0.0254213 35.6065 0.110279 35.0792 0.204579 34.5507C1.28213 28.7462 2.3568 22.9424 3.45045 17.1408C3.5758 17.1014 3.70748 17.0923 3.83685 17.0718C4.56538 16.9418 5.29735 16.8375 6.0299 16.732L6.04428 16.7286C6.04025 16.7576 6.03278 16.8158 6.02875 16.8443C5.46008 19.8899 4.92705 22.9418 4.39575 25.9937C3.82938 29.2514 3.27565 32.5108 2.71445 35.7696C2.6282 36.3352 2.72883 36.9526 3.09395 37.4093C3.5206 37.9646 4.11285 38.3591 4.68383 38.7536C5.34335 39.208 6.01265 39.6499 6.6808 40.0923C8.95665 41.5951 11.2452 43.0798 13.5302 44.5689C14.6779 45.3107 15.8176 46.0638 16.9681 46.801C16.9785 46.7405 16.99 46.6801 16.9934 46.6191C16.9917 36.9475 16.9929 27.2753 16.9929 17.6031C16.986 17.0684 17.0061 16.5324 16.9819 15.9982L16.9814 15.9823ZM24.5811 20.3494C24.4414 20.4372 24.4587 20.6425 24.5754 20.7428C24.3396 20.7793 24.0953 20.8203 23.8917 20.9509C23.844 20.9788 23.798 21.017 23.7399 21.0188C23.5444 21.0433 23.3443 21.09 23.1804 21.2023C23.0419 21.2953 22.9401 21.4543 22.9516 21.6248C22.9441 21.8346 23.1086 22.0079 23.2839 22.1037C23.392 22.1733 23.5249 22.1812 23.641 22.2325C23.6439 22.3038 23.6479 22.3757 23.6531 22.4475C23.8572 22.4435 24.0567 22.3899 24.2603 22.3756C24.7876 22.3426 25.3212 22.3557 25.8387 22.468C25.8576 22.3739 25.818 22.2086 25.9525 22.1961C26.1865 22.1493 26.4223 22.0102 26.5166 21.7833C26.6011 21.5849 26.5154 21.3466 26.3435 21.2234C26.175 21.1008 25.9669 21.0433 25.761 21.0205C25.6938 21.0176 25.6409 20.9731 25.5851 20.9429C25.3856 20.8255 25.1561 20.7719 24.9279 20.7462C24.9859 20.6698 25.0371 20.578 25.0101 20.4794C24.9549 20.3135 24.7174 20.2223 24.5811 20.3494ZM26.7834 22.5678C27.225 22.968 27.4303 23.5706 27.4441 24.1527C27.4935 24.476 27.4314 24.7987 27.432 25.1225C27.3814 25.6123 27.2934 26.0974 27.2043 26.5815C27.1232 27.041 27.0318 27.5011 27.0174 27.968C27.0439 28.6174 27.3032 29.2314 27.6298 29.7861C27.9299 30.3243 28.3117 30.8135 28.6119 31.3523C28.7119 31.549 28.8413 31.7633 28.7781 31.9925C28.7211 32.1219 28.6182 32.281 28.4538 32.2633C28.2462 32.2878 28.0921 32.1202 27.9627 31.9851C27.6712 31.6482 27.4527 31.2576 27.2491 30.8642C27.0042 30.305 26.5425 29.8848 26.1187 29.4595C25.872 29.2149 25.6248 28.972 25.3706 28.7354C25.3476 28.7092 25.3062 28.6852 25.324 28.6459C25.776 28.2713 26.0606 27.7177 26.1509 27.1447C26.1664 27.0746 26.1469 26.992 26.2032 26.9367C26.2596 26.9845 26.3079 27.098 26.4016 27.0501C26.4206 26.8506 26.3987 26.6487 26.4108 26.4481C26.4102 26.6556 26.4234 26.8648 26.4085 27.0718C26.3912 27.0746 26.3562 27.082 26.3383 27.0855C26.3533 27.098 26.3826 27.1242 26.3976 27.1373C26.4792 27.1408 26.4355 27.0467 26.4436 26.9994C26.4206 26.6373 26.474 26.2782 26.4913 25.9173C26.5488 25.6208 26.4677 25.3272 26.4338 25.0347C26.5384 25.0381 26.6431 25.0381 26.7483 25.0341C26.7144 24.4116 26.6195 23.7497 26.2297 23.2388C25.9657 22.8836 25.5368 22.675 25.0998 22.6276C24.5035 22.5598 23.9078 22.6858 23.3328 22.8289C23.2466 22.8409 23.2443 22.9378 23.2218 23.0028C23.3673 23.0376 23.5312 22.9897 23.6675 23.0512C23.5605 23.0986 23.4449 23.1231 23.3374 23.1687C23.2897 23.1852 23.2788 23.2417 23.2747 23.2856C23.2719 23.5786 23.3506 23.8785 23.5364 24.1117C23.6439 23.9902 23.6732 23.7987 23.8382 23.7286C23.9187 23.6761 23.9929 23.7616 24.0418 23.8164C24.2425 24.0353 24.2522 24.3591 24.1936 24.6339C24.1683 24.7776 23.9831 24.7839 23.8727 24.7451C23.7738 24.7137 23.725 24.6225 23.6876 24.5341C23.5329 24.9344 23.6054 25.4469 23.9308 25.7462C23.9509 25.6134 23.9498 25.4657 24.0418 25.3568C24.128 25.2377 24.2839 25.2058 24.423 25.2097C24.4242 25.484 24.3074 25.7861 24.0544 25.9235C23.798 26.0558 23.5013 26.0621 23.2282 26.1425C22.8699 26.2354 22.5594 26.4612 22.3151 26.732C21.9471 27.1311 21.6895 27.6123 21.3537 28.037C21.1323 28.3209 20.8574 28.598 20.4981 28.6944C20.5084 28.8175 20.5763 28.9241 20.6395 29.0273C20.7982 29.2725 21.0299 29.4646 21.2864 29.6037C21.2795 29.7109 21.2001 29.7901 21.1472 29.8779C20.9316 30.1784 20.712 30.4817 20.4296 30.7246C20.3612 30.785 20.2813 30.8369 20.1864 30.838C20.0881 30.7183 20.0064 30.5598 19.8512 30.5079C19.6442 30.488 19.4481 30.5826 19.2497 30.6282C19.2198 30.6881 19.194 30.7491 19.171 30.8124C19.2434 30.8386 19.3245 30.8432 19.3929 30.8808C19.3992 30.988 19.39 31.0951 19.3837 31.2029C19.5482 31.2439 19.7207 31.2508 19.8822 31.3072C19.8828 31.33 19.8845 31.3751 19.8857 31.3973C19.7684 31.3813 19.6534 31.354 19.539 31.3272C19.4602 31.3426 19.3647 31.3449 19.3205 31.423C19.1865 31.6214 19.0427 31.8489 19.0732 32.098C19.1307 32.0758 19.1761 32.033 19.2279 32.0011C19.3279 31.9959 19.3509 32.1157 19.3596 32.1915C19.3992 32.2109 19.4521 32.2713 19.493 32.2172C19.6264 32.1077 19.7414 31.9777 19.8713 31.8648C19.9271 31.8363 19.9484 31.9087 19.953 31.9498C19.8466 32.0741 19.7258 32.1852 19.6154 32.3055C19.5924 32.3323 19.5614 32.3608 19.5677 32.4007C19.5683 32.6356 19.4999 32.8722 19.5643 33.1043C19.654 33.0404 19.7172 32.9321 19.8196 32.8922C19.9018 32.9207 19.9708 32.984 20.0616 32.9965C20.3244 32.9298 20.4308 32.651 20.5636 32.4452C20.6821 32.529 20.8229 32.5661 20.965 32.5855C20.9776 32.6567 20.9868 32.7286 20.9995 32.8004C21.0087 32.8015 21.0265 32.805 21.0357 32.8061C21.1599 32.6812 21.2404 32.5096 21.2375 32.3323C21.2364 32.1117 21.2024 31.8899 21.2306 31.6693C21.2628 31.4811 21.3864 31.3283 21.5129 31.1921C21.5894 31.224 21.6619 31.2656 21.7412 31.2924C21.9114 31.3357 22.0925 31.3072 22.2512 31.236C22.3731 31.1978 22.4542 31.0746 22.4933 30.9634C22.3174 30.9024 22.1224 30.7371 22.1742 30.5319C22.2041 30.395 22.3174 30.2816 22.4565 30.2519C22.6836 30.2029 22.9269 30.2291 23.1396 30.3221C23.8066 30.6048 24.2356 31.2103 24.7301 31.7063C24.7697 31.9589 24.7025 32.2177 24.7059 32.4731C24.6927 32.9663 24.6726 33.4731 24.8203 33.9498C24.9187 34.2901 25.1717 34.5729 25.2142 34.931C25.2441 35.0974 25.209 35.2668 25.2228 35.4344C25.3298 35.3973 25.4505 35.3779 25.5351 35.297C25.6104 35.2297 25.6575 35.1396 25.7053 35.0524C25.8059 35.0575 25.9065 35.0592 26.0066 35.0769C25.9916 35.1259 25.9755 35.1744 25.9508 35.2194C25.7599 35.5655 25.5696 35.9161 25.3177 36.2234C25.1889 36.3842 25.0423 36.5387 24.8554 36.6322C24.6944 36.716 24.488 36.7229 24.3287 36.6328C24.1332 36.5336 23.967 36.3528 23.7342 36.3489C23.6008 36.3414 23.5312 36.472 23.4421 36.5461C23.365 36.6288 23.2437 36.6117 23.1442 36.6402C23.058 36.6864 22.9947 36.789 23.0212 36.8876C23.1017 36.8893 23.185 36.8882 23.2609 36.9207C23.2747 37.0068 23.2857 37.0963 23.3207 37.1784C23.3926 37.1681 23.4237 37.0746 23.4771 37.0302C23.5576 36.9555 23.6088 36.8306 23.7267 36.8107C23.7077 36.8534 23.6818 36.8945 23.6496 36.9298C23.5036 37.0912 23.4041 37.2856 23.292 37.4703C23.2086 37.59 23.2443 37.7422 23.2552 37.8774C23.2673 37.9281 23.25 38.0022 23.315 38.0239C23.3558 37.9577 23.3915 37.8888 23.4357 37.8249C23.5824 37.7605 23.5973 37.9543 23.7054 38.0005C23.806 37.7639 23.7986 37.5005 23.871 37.2559C23.8883 37.2468 23.9239 37.228 23.9417 37.2189C23.9406 37.2622 23.9366 37.3061 23.9285 37.35C23.821 37.6881 23.771 38.0552 23.8641 38.403C23.8699 38.4549 23.9113 38.4885 23.9463 38.5239C23.9923 38.4372 24.0033 38.3198 24.1027 38.2742C24.1746 38.2217 24.2683 38.2371 24.3523 38.2314C24.3465 38.155 24.4035 38.0541 24.3431 37.9937L24.377 37.9988C24.377 37.8905 24.3684 37.7816 24.3799 37.6738C24.3989 37.5946 24.4489 37.5273 24.4955 37.4617C24.4926 37.4805 24.4868 37.5176 24.4845 37.5364C24.3759 37.8808 24.4075 38.2559 24.5012 38.6008C24.5478 38.6316 24.5955 38.6624 24.6427 38.6938C24.6714 38.586 24.7002 38.4794 24.7243 38.3711C24.906 38.334 25.0894 38.3118 25.2723 38.2799C25.3413 38.2759 25.3827 38.2149 25.4224 38.167C25.5931 37.9452 25.6305 37.6601 25.7449 37.4116C25.8053 37.2713 25.8898 37.1174 26.0416 37.0615C26.167 37.0165 26.2509 37.1282 26.3268 37.2052C26.4068 37.0108 26.4091 36.7992 26.4487 36.5957C26.4947 36.24 26.719 35.9463 26.8995 35.647C27.0887 35.3568 27.2353 35.0336 27.2767 34.6881C27.2934 34.4264 27.2997 34.1504 27.1991 33.903C27.1008 34.0404 27.0249 34.1921 26.922 34.3266C26.6138 34.3397 26.4016 34.0444 26.3498 33.7707C26.2751 33.2234 26.3383 32.6248 26.6776 32.1693C26.7466 32.0832 26.8386 31.9743 26.9628 31.9965C27.1738 32.5655 27.7408 32.9868 28.3485 33.0398C28.7016 33.0758 29.0759 32.927 29.2795 32.6328C29.3939 32.46 29.483 32.2628 29.4916 32.0535C29.5457 31.8363 29.4663 31.6151 29.3743 31.4201C29.249 31.1447 29.0702 30.8973 28.9235 30.6339C29.019 30.1841 29.2381 29.7702 29.4704 29.3757C29.1098 29.5016 28.8298 29.797 28.6406 30.1185C28.6533 29.9173 28.7401 29.728 28.8091 29.5404C28.9051 29.2793 29.0575 29.0444 29.1932 28.8032C28.8517 28.907 28.6125 29.1932 28.3928 29.4566C28.513 28.9937 28.701 28.5478 28.9724 28.1516C28.9299 28.1596 28.8856 28.1624 28.8471 28.1829C28.5032 28.3614 28.241 28.6607 28.061 28.9977C27.8195 28.3426 27.9064 27.6328 27.9926 26.9577C28.1116 26.0125 28.2847 25.0735 28.5354 24.1539C28.6493 23.7491 28.8614 23.35 29.2254 23.1157C28.6585 23.0233 28.1341 23.5849 28.1875 24.1356C28.1824 24.1362 28.172 24.1379 28.1668 24.1385C28.164 23.9429 28.1013 23.7542 28.03 23.5746C27.8241 23.0598 27.3354 22.6607 26.7834 22.5678ZM22.4588 24.2764C22.3944 24.4486 22.3892 24.6647 22.5198 24.8084C22.6434 24.9344 22.8429 24.9292 22.9987 24.8722C23.2638 24.7776 23.4392 24.545 23.6709 24.3979C23.7848 24.3221 23.9176 24.2873 24.0516 24.2645C23.921 24.204 23.7623 24.1932 23.6278 24.2462C23.3984 24.334 23.173 24.4395 22.9292 24.4834C22.8297 24.4937 22.7049 24.5051 22.6388 24.4133C22.5893 24.2662 22.6474 24.1168 22.6963 23.9788C22.5675 24.025 22.5042 24.1573 22.4588 24.2764ZM20.5814 24.5752C20.5918 24.7616 20.4486 24.9093 20.4469 25.0917C20.4659 25.2434 20.4837 25.3956 20.4768 25.549C20.3261 25.4064 20.3951 25.1601 20.2497 25.0119C20.0898 24.8511 19.8822 24.7308 19.6603 24.6778C19.7011 24.8825 19.6258 25.1145 19.7523 25.2981C19.8276 25.4099 19.8805 25.5376 19.9702 25.6402C19.9731 25.6926 19.976 25.7462 19.9788 25.7998C19.9616 25.8004 19.9259 25.8015 19.9081 25.8021C19.8035 25.6807 19.7046 25.5535 19.5953 25.4367C19.3998 25.35 19.1825 25.4361 18.9921 25.4965C19.0847 25.5991 19.1836 25.6978 19.2555 25.8169C19.4562 26.1157 19.6672 26.4463 19.6384 26.8215C19.6471 27.0632 19.4918 27.2713 19.3124 27.4184C19.4027 27.5473 19.5763 27.5433 19.7172 27.5558C19.7874 27.5541 19.8702 27.5666 19.9305 27.5233C20.0237 27.4156 20.0783 27.2799 20.1755 27.1755C20.1881 27.1767 20.2134 27.1795 20.2261 27.1807C20.4981 27.4988 20.743 27.8392 21.0104 28.1613C21.2456 27.9663 21.3876 27.6892 21.5578 27.4418C21.5888 27.3882 21.6377 27.3397 21.6475 27.277C21.5279 26.797 20.9707 26.5826 20.8615 26.0974C20.7925 25.6932 20.969 25.285 20.8707 24.8831C20.816 24.7531 20.7206 24.6214 20.5814 24.5752ZM23.4058 30.9806C23.1494 31.0672 22.9953 31.305 22.8251 31.4977C22.6405 31.7234 22.3743 31.9201 22.0667 31.9059C22.0851 32.0763 22.1374 32.2519 22.2524 32.3842C22.3346 32.4777 22.4542 32.5244 22.575 32.5484C22.5876 32.6145 22.5968 32.6807 22.6014 32.7485C22.6261 33.2291 22.8176 33.7035 23.1523 34.0552C23.181 34.098 23.2684 34.1579 23.2149 34.2115C22.9941 34.244 22.7699 34.2377 22.5474 34.2394C22.3714 34.2382 22.184 34.2474 22.0247 34.1596C21.7378 34.0159 21.6003 33.708 21.3669 33.5045C21.1996 33.362 20.9747 33.2958 20.7562 33.3283C20.7925 33.3916 20.835 33.4515 20.862 33.5199C20.8804 33.6157 20.8235 33.7023 20.8011 33.793C20.9374 33.8335 21.0736 33.8745 21.2128 33.9093C21.2122 33.9481 21.2122 33.9874 21.2128 34.0273C21.0064 33.98 20.7735 33.9577 20.5809 34.0638C20.4526 34.1282 20.3739 34.2554 20.3307 34.387C20.4084 34.3905 20.4854 34.3939 20.5636 34.3973C20.6292 34.5102 20.674 34.6328 20.6918 34.7622C20.8356 34.6191 20.9529 34.452 21.1041 34.3169C21.0989 34.4863 21.0046 34.6328 20.908 34.7662C20.7752 34.9469 20.6435 35.1539 20.6631 35.3882C20.758 35.3665 20.831 35.301 20.9144 35.2554C20.9811 35.3329 21.0524 35.4064 21.1254 35.4777C21.2375 35.3346 21.2479 35.1465 21.3042 34.9794C21.3249 34.9794 21.368 34.9794 21.3887 34.9794C21.3698 35.1676 21.2927 35.3443 21.268 35.5319C21.222 35.7183 21.2237 35.9555 21.3939 36.0815C21.4227 35.9908 21.4503 35.9007 21.4802 35.8112C21.5624 35.8004 21.6469 35.8032 21.7257 35.834C21.9195 35.8962 22.0931 35.7365 22.192 35.5883C22.2834 35.4458 22.4301 35.3323 22.6066 35.326C22.6555 35.3865 22.713 35.4441 22.7383 35.5199C22.7515 35.598 22.7595 35.6778 22.7814 35.7548C22.9677 35.6858 23.0666 35.5051 23.2247 35.399C23.4996 35.2554 23.8193 35.2559 24.1217 35.2457C24.4029 35.2308 24.6358 35.0444 24.7991 34.8295C24.4932 34.5438 24.2373 34.2046 24.0412 33.8363C23.9067 33.5626 23.7842 33.2565 23.8394 32.9469C23.8842 32.8169 23.9228 32.6522 24.0665 32.5969C24.231 32.5096 24.4104 32.6151 24.5507 32.7023C24.5714 32.5159 24.5932 32.3283 24.5886 32.1408C24.4799 31.9469 24.2442 31.8528 24.1493 31.647C24.097 31.5319 24.1522 31.4036 24.1194 31.2867C24.1079 31.3922 24.1114 31.4988 24.1022 31.6048C24.0924 31.4863 24.0993 31.3677 24.1194 31.2508C23.921 31.0923 23.6738 30.923 23.4058 30.9806Z" fill="#D5B527"></path>
                            <path d="M23.969 21.3265C24.1093 21.1401 24.3462 21.0346 24.5785 21.0352C24.5262 21.2267 24.4704 21.4217 24.494 21.623C24.4928 21.7672 24.5785 21.8972 24.567 22.042C24.3629 22.0203 24.1547 21.9485 24.0144 21.7934C23.8937 21.6726 23.8862 21.469 23.969 21.3265Z" fill="#D5B527"></path>
                            <path d="M24.8949 21.0408C25.1128 21.0248 25.3365 21.12 25.4826 21.2797C25.5866 21.3846 25.6027 21.5522 25.5516 21.685C25.4216 21.9296 25.1249 22.03 24.8633 22.0545C25.0456 21.7506 25.0507 21.3561 24.8949 21.0408Z" fill="#D5B527"></path>
                            <path d="M23.2296 21.5103C23.2842 21.3467 23.4699 21.2709 23.6286 21.248C23.5878 21.3569 23.5228 21.4647 23.5372 21.5856C23.5487 21.7452 23.6706 21.8695 23.8017 21.9504C23.8 21.9732 23.7965 22.0189 23.7948 22.0411C23.6223 22.0308 23.4297 22.0114 23.3049 21.878C23.2003 21.7862 23.2049 21.6346 23.2296 21.5103Z" fill="#D5B527"></path>
                            <path d="M25.8672 21.2461C26.0299 21.2666 26.2081 21.3493 26.2656 21.5141C26.2972 21.6429 26.2835 21.8008 26.169 21.8875C26.0029 22.0437 25.759 22.0323 25.5469 22.0249C25.6941 21.9382 25.8677 21.8584 25.9321 21.6874C25.9965 21.5374 25.9281 21.3841 25.8672 21.2461Z" fill="#D5B527"></path>
                            <path d="M10.2856 21.4707C10.661 21.4747 11.0365 21.4718 11.412 21.4718C11.4189 21.8037 11.4091 22.1355 11.4172 22.4679C11.7058 22.4724 11.9945 22.4622 12.2831 22.4724C12.3021 22.4348 12.3113 22.3949 12.3101 22.3533C12.3096 22.0807 12.3067 21.8082 12.3124 21.5357C12.6684 21.5346 13.0237 21.5374 13.3796 21.534C13.3865 22.3356 13.3848 23.1378 13.3808 23.9393C11.6713 23.9365 9.9624 23.9382 8.2535 23.9382C8.25293 23.1372 8.24948 22.3356 8.25523 21.5346C8.61115 21.5357 8.96708 21.5374 9.323 21.5334C9.3299 21.7364 9.32588 21.9393 9.32645 22.1423C9.32875 22.2523 9.3138 22.3664 9.3506 22.473C9.65075 22.4622 9.95148 22.4713 10.2516 22.4673C10.3109 22.1389 10.2591 21.8025 10.2856 21.4707Z" fill="#D5B527"></path>
                            <path d="M24.2771 22.9503C24.506 22.9497 24.7383 22.9258 24.9642 22.9703C24.9976 22.9857 25.0689 22.9788 25.058 23.0358C24.8699 23.1276 24.667 23.1823 24.4749 23.2644C24.4111 23.2924 24.3444 23.3112 24.2754 23.3197C24.2783 23.196 24.2783 23.0729 24.2771 22.9503Z" fill="#D5B527"></path>
                            <path d="M9.09788 24.3429C10.2444 24.3446 11.3916 24.3464 12.5381 24.3418C12.6031 24.6212 12.6094 24.9108 12.6577 25.1941C12.9901 27.8549 13.3236 30.5163 13.6582 33.177C13.6755 33.4011 13.7307 33.6223 13.7307 33.8481C11.79 33.8424 9.84883 33.8475 7.9082 33.8452C7.93753 33.4034 8.0232 32.9672 8.06288 32.5265C8.40558 29.8161 8.74195 27.1041 9.08465 24.3937C9.08695 24.3811 9.09443 24.3555 9.09788 24.3429ZM9.99948 27.1069C9.9897 27.2922 9.97073 27.486 10.0213 27.6679C10.5532 27.6679 11.0857 27.6639 11.6175 27.6696C11.663 27.4843 11.6405 27.2905 11.6394 27.1023C11.629 27.0932 11.6083 27.075 11.598 27.0659C11.0765 27.0602 10.5544 27.0596 10.0328 27.0664C10.0248 27.0767 10.0075 27.0966 9.99948 27.1069ZM10.0185 28.9621C10.0242 29.1525 10.019 29.3435 10.0236 29.5339C10.5613 29.5334 11.0989 29.5345 11.6359 29.5334C11.6532 29.3435 11.6371 29.1537 11.6474 28.9638C11.6014 28.9404 11.5503 28.9302 11.4991 28.9336C11.0563 28.9347 10.6142 28.9347 10.1714 28.9336C10.1185 28.9296 10.0668 28.9421 10.0185 28.9621ZM9.9897 30.8372C10.0035 31.0282 9.9644 31.2249 10.0208 31.4113C10.5526 31.4125 11.0839 31.4096 11.6158 31.4131C11.6704 31.2261 11.629 31.0299 11.6451 30.8389C11.5991 30.8144 11.5491 30.8019 11.4974 30.8064C11.0546 30.8064 10.6119 30.807 10.1685 30.8064C10.1076 30.8047 10.0489 30.8224 9.9897 30.8372Z" fill="#D5B527"></path>
                            <path d="M7.24276 34.2875C9.62441 34.2887 12.0061 34.2847 14.3877 34.2898C14.39 35.0908 14.3877 35.8919 14.3889 36.6934C13.7541 36.6986 13.1193 36.6929 12.4839 36.6963C12.4718 36.4871 12.5011 36.2755 12.4551 36.0697C11.3626 36.0732 10.2707 36.0686 9.17821 36.072C9.17304 36.279 9.17591 36.4859 9.17649 36.6934C8.53191 36.6986 7.88734 36.694 7.24219 36.6957C7.24334 35.8924 7.24276 35.0903 7.24276 34.2875Z" fill="#D5B527"></path>
                            <path d="M42.9083 10.7361C46.7188 10.7355 50.5299 10.7361 54.3405 10.7361C56.6198 10.7201 58.91 10.8108 61.1588 11.2025C62.8396 11.5046 64.5226 11.9693 65.9928 12.8547C66.6938 13.28 67.3361 13.8096 67.8495 14.4482C68.313 15.016 68.6683 15.6682 68.9081 16.3581C69.2221 17.2635 69.3342 18.2275 69.3215 19.1814C69.3037 19.979 69.187 20.7794 68.9121 21.532C68.6195 22.3535 68.1347 23.1038 67.5189 23.7247C66.4333 24.8056 65.0085 25.4801 63.5549 25.9288C63.2053 26.044 62.8441 26.1175 62.4934 26.2241C64.131 26.5308 65.768 27.0143 67.1768 27.9208C67.8536 28.3615 68.4677 28.9066 68.9455 29.5571C69.3848 30.1426 69.7062 30.8102 69.9195 31.5075C70.1875 32.3929 70.2795 33.3233 70.2611 34.2452C70.2415 35.2629 70.0903 36.2863 69.7344 37.2441C69.2704 38.5303 68.4004 39.6608 67.2895 40.4659C65.9986 41.4071 64.4599 41.9505 62.9051 42.2828C61.7039 42.536 60.4786 42.6705 59.2527 42.7281C58.3476 42.7823 57.4409 42.7578 56.5352 42.7629C54.0909 42.7629 51.646 42.7629 49.2017 42.7629C47.1024 42.7578 45.003 42.7737 42.9043 42.7549C42.9135 32.0822 42.9043 21.4088 42.9083 10.7361ZM51.577 16.5559C51.5741 18.9402 51.5776 21.325 51.5753 23.7087C52.232 23.7099 52.8892 23.7093 53.5464 23.7099C54.6889 23.6968 55.8384 23.7629 56.9723 23.5918C57.8146 23.4659 58.6748 23.2498 59.3729 22.7429C59.972 22.3165 60.3676 21.6409 60.4947 20.9248C60.6442 20.109 60.5942 19.223 60.1853 18.4847C59.8242 17.8376 59.1946 17.3763 58.5127 17.1027C57.5409 16.7059 56.4806 16.589 55.4382 16.5565C54.1507 16.5548 52.8639 16.5542 51.577 16.5559ZM51.5753 29.2429C51.5793 31.8062 51.5707 34.3701 51.5799 36.9334C52.6454 36.9265 53.7114 36.9322 54.7769 36.9305C55.9557 36.9385 57.1459 36.8843 58.293 36.5964C59.0675 36.3969 59.8478 36.0633 60.3774 35.4465C60.9087 34.8433 61.1272 34.0314 61.1583 33.2446C61.1939 32.4795 61.0536 31.6796 60.6091 31.0394C60.1715 30.4009 59.4758 29.983 58.7496 29.7389C57.5892 29.3416 56.3495 29.2663 55.1317 29.2424C53.9454 29.2435 52.7604 29.2418 51.5753 29.2429Z" fill="red"></path>
                            <path d="M74.5107 10.7389C79.178 10.7343 83.8458 10.7383 88.5137 10.7371C90.0231 10.7212 91.5388 10.7696 93.0326 11.0017C94.2884 11.1961 95.5321 11.5119 96.6971 12.0216C97.7453 12.48 98.728 13.1032 99.5439 13.9048C100.317 14.6568 100.927 15.5684 101.345 16.5576C101.728 17.4623 101.955 18.4264 102.064 19.3996C102.202 20.63 102.18 21.8785 101.984 23.1009C101.834 24.0074 101.572 24.8985 101.177 25.7314C100.361 27.4794 98.9218 28.9042 97.2221 29.8175C96.2957 30.321 95.2952 30.6824 94.2689 30.9264C92.8906 31.2617 91.468 31.3802 90.0518 31.3985C87.872 31.3996 85.6927 31.3991 83.5135 31.3991C83.5106 35.0615 83.5123 38.7235 83.5123 42.3854C83.5095 42.5102 83.5008 42.6357 83.4968 42.7617C80.5028 42.7617 77.5082 42.7565 74.5142 42.7639C74.4975 40.9259 74.5119 39.0866 74.5073 37.248C74.5101 28.4116 74.5038 19.5752 74.5107 10.7389ZM83.5135 16.7297C83.5106 19.5199 83.5141 22.3107 83.5118 25.1015C84.7549 25.1026 85.9986 25.1015 87.2418 25.102C88.0336 25.1129 88.8294 25.0735 89.6079 24.9224C90.2548 24.7947 90.8971 24.5901 91.4565 24.2349C91.8786 23.9692 92.2431 23.6089 92.499 23.1813C92.836 22.6334 92.9958 21.9954 93.0487 21.3609C93.0976 20.5975 93.0591 19.8101 92.7756 19.0901C92.5312 18.4447 92.0614 17.8877 91.464 17.537C90.893 17.1961 90.2439 17.008 89.5924 16.8894C88.7437 16.7354 87.8783 16.7178 87.0181 16.7286C85.8509 16.7292 84.6819 16.7292 83.5135 16.7297Z" fill="red"></path>
                            <path d="M106.033 10.7424C109.019 10.727 112.005 10.739 114.991 10.7361C114.992 20.5908 114.991 30.4454 114.992 40.3006C114.995 41.1187 114.986 41.9368 114.996 42.755C112.01 42.7726 109.023 42.7589 106.036 42.7618C106.033 32.089 106.038 21.4157 106.033 10.7424Z" fill="red"></path>
                        </svg>