<svg  viewBox="0 0 360 210" fill="none" xmlns="http://www.w3.org/2000/svg">
<path d="M214.495 16H144.514C141.195 16 138.012 17.3132 135.665 19.6508C133.318 21.9883 132 25.1587 132 28.4645V181.677C132 184.983 133.318 188.154 135.665 190.491C138.012 192.829 141.195 194.142 144.514 194.142H214.495C217.814 194.142 220.997 192.829 223.344 190.491C225.691 188.154 227.009 184.983 227.009 181.677V28.4645C227.009 25.1587 225.691 21.9883 223.344 19.6508C220.997 17.3132 217.814 16 214.495 16Z" fill="#3D5159"/>
<path d="M214.495 16H144.514C141.195 16 138.012 17.3132 135.665 19.6508C133.318 21.9883 132 25.1587 132 28.4645V181.677C132 184.983 133.318 188.154 135.665 190.491C138.012 192.829 141.195 194.142 144.514 194.142H214.495C217.814 194.142 220.997 192.829 223.344 190.491C225.691 188.154 227.009 184.983 227.009 181.677V28.4645C227.009 25.1587 225.691 21.9883 223.344 19.6508C220.997 17.3132 217.814 16 214.495 16Z" fill="black" fill-opacity="0.2"/>
<path d="M222.3 29.6453V179.306C222.302 181.744 221.334 184.082 219.61 185.812C217.885 187.541 215.543 188.52 213.096 188.535H145.908C143.462 188.519 141.122 187.539 139.398 185.81C137.674 184.081 136.707 181.743 136.708 179.306V29.6453C136.707 27.2087 137.674 24.8705 139.398 23.1415C141.122 21.4125 143.462 20.433 145.908 20.417H213.101C215.547 20.433 217.887 21.4125 219.611 23.1415C221.335 24.8705 222.302 27.2087 222.3 29.6453Z" fill="#F4FAFA"/>
<path d="M213.101 20.417L146.738 188.535H145.908C143.462 188.519 141.122 187.539 139.398 185.81C137.674 184.081 136.707 181.743 136.708 179.306V29.6453C136.707 27.2087 137.674 24.8705 139.398 23.1415C141.122 21.4125 143.462 20.433 145.908 20.417H213.101Z" fill="white"/>
<rect x="143.875" y="161.483" width="71.2568" height="14.8452" rx="2.989" fill="#DC6266"/>
<rect x="143.875" y="128.823" width="71.2568" height="5.93807" fill="#E8F5FD"/>
<rect x="155.75" y="143.668" width="47.5045" height="5.93807" fill="#E8F5FD"/>
<path d="M196.445 31.644L194.161 32.6993C182.8 37.9466 177.844 51.4103 183.091 62.7712L191.111 80.135C196.358 91.4959 209.822 96.4519 221.183 91.2046L223.468 90.1493C234.829 84.9019 239.785 71.4383 234.537 60.0774L226.517 42.7136C221.27 31.3527 207.806 26.3967 196.445 31.644Z" fill="#EBEAFA"/>
<path d="M191.692 54.0572C191.619 54.1727 191.522 54.2722 191.409 54.3494C191.295 54.4267 191.168 54.4801 191.033 54.5066C190.898 54.5331 190.76 54.5321 190.626 54.5036C190.491 54.4751 190.364 54.4196 190.252 54.3407C190.14 54.2617 190.045 54.1609 189.973 54.0442C189.901 53.9275 189.853 53.7974 189.833 53.6618C189.812 53.5262 189.819 53.3878 189.854 53.255C189.888 53.1223 189.949 52.9978 190.033 52.8893C192.777 48.991 196.502 45.8862 200.831 43.8886C205.144 41.8867 209.916 41.0825 214.647 41.5604C214.906 41.5982 215.141 41.7345 215.302 41.9409C215.463 42.1474 215.538 42.408 215.511 42.6685C215.485 42.929 215.358 43.1691 215.159 43.3388C214.96 43.5085 214.702 43.5946 214.441 43.5792C210.066 43.1355 205.652 43.8797 201.665 45.7335C197.666 47.5818 194.226 50.4531 191.692 54.0572Z" fill="#5E54D8"/>
<path d="M192.408 65.887C192.391 66.0194 192.348 66.1472 192.281 66.2629C192.214 66.3786 192.125 66.4801 192.019 66.5614C191.913 66.6428 191.792 66.7024 191.663 66.737C191.534 66.7716 191.399 66.7805 191.267 66.7631C191.134 66.7456 191.007 66.7023 190.891 66.6355C190.775 66.5687 190.674 66.4798 190.592 66.3738C190.511 66.2678 190.451 66.1468 190.417 66.0178C190.382 65.8887 190.373 65.7541 190.391 65.6217C190.834 61.9211 192.217 58.3955 194.408 55.3802C196.599 52.3648 199.524 49.96 202.907 48.3944C206.285 46.8089 210.017 46.1287 213.737 46.4206C217.457 46.7124 221.037 47.9664 224.127 50.0594C224.35 50.21 224.505 50.4432 224.556 50.7077C224.608 50.9722 224.552 51.2464 224.402 51.47C224.251 51.6935 224.018 51.848 223.753 51.8996C223.489 51.9512 223.214 51.8956 222.991 51.745C220.191 49.8463 216.945 48.709 213.573 48.4447C210.2 48.1805 206.817 48.7984 203.755 50.2378C200.685 51.6595 198.029 53.8443 196.043 56.5839C194.056 59.3235 192.805 62.5264 192.408 65.887Z" fill="#5E54D8"/>
<path d="M214.773 82.0229C214.9 82.0687 215.017 82.1395 215.116 82.231C215.216 82.3226 215.296 82.4331 215.352 82.556C215.408 82.679 215.439 82.8119 215.444 82.9471C215.448 83.0822 215.425 83.2168 215.376 83.343C215.328 83.4692 215.254 83.5844 215.161 83.6819C215.067 83.7794 214.955 83.8572 214.831 83.9107C214.707 83.9643 214.573 83.9926 214.438 83.9938C214.303 83.9951 214.169 83.9693 214.043 83.9181C208.257 81.689 203.626 77.6688 201.68 73.438C198.811 67.1422 200.972 60.1942 207.068 57.3975C212.965 54.6805 219.302 57.1561 222.844 63.1679C222.925 63.2825 222.98 63.4125 223.008 63.5497C223.036 63.6869 223.035 63.8283 223.005 63.9651C222.976 64.1019 222.918 64.2311 222.836 64.3446C222.754 64.4581 222.65 64.5534 222.529 64.6247C222.409 64.6959 222.275 64.7414 222.136 64.7585C221.997 64.7755 221.856 64.7637 221.722 64.7236C221.588 64.6836 221.464 64.6163 221.357 64.526C221.25 64.4356 221.163 64.3241 221.101 64.1985C218.063 59.0595 212.813 57.0118 207.927 59.2694C202.884 61.5949 201.069 67.3013 203.525 72.6113C205.239 76.3112 209.457 79.9746 214.773 82.0229Z" fill="#5E54D8"/>
<path d="M210.71 68.3855C210.627 68.2755 210.566 68.1496 210.533 68.0156C210.5 67.8816 210.495 67.7423 210.517 67.6061C210.54 67.4699 210.59 67.3398 210.664 67.2236C210.739 67.1074 210.836 67.0076 210.951 66.9304C211.065 66.8531 211.194 66.8 211.33 66.7742C211.465 66.7484 211.605 66.7506 211.74 66.7806C211.874 66.8105 212.001 66.8676 212.113 66.9484C212.225 67.0291 212.32 67.1319 212.391 67.2503C213.536 69.1156 215.11 70.6805 216.982 71.8147C218.553 72.6797 220.331 73.0976 222.123 73.0229C223.252 72.9666 224.359 72.6915 225.383 72.213C226.104 71.8798 226.776 71.4521 227.383 70.9413C227.59 70.7679 227.857 70.6837 228.126 70.7073C228.395 70.7309 228.643 70.8604 228.816 71.0671C228.99 71.2739 229.074 71.5411 229.05 71.8099C229.027 72.0787 228.897 72.3272 228.691 72.5006C226.87 74.0232 224.606 74.9183 222.236 75.0531C220.062 75.1447 217.903 74.6382 215.996 73.5884C213.839 72.3071 212.025 70.5218 210.71 68.3855Z" fill="#5E54D8"/>
<path d="M203.725 80.7737C203.915 80.9446 204.034 81.1809 204.058 81.4356C204.081 81.6903 204.008 81.9445 203.852 82.1474C203.696 82.3503 203.47 82.4871 203.218 82.5303C202.966 82.5735 202.707 82.52 202.492 82.3805C200.202 80.543 198.389 78.1792 197.209 75.4904C193.159 66.7122 196.436 56.8156 204.99 52.8849C207.037 51.9525 209.249 51.436 211.497 51.3653C213.745 51.2945 215.984 51.671 218.086 52.4728C220.187 53.2746 222.108 54.4857 223.738 56.036C225.368 57.5863 226.673 59.4447 227.579 61.5036C229.002 64.9005 227.378 67.6648 224.313 69.1426C222.927 69.7944 221.351 69.9191 219.881 69.4936C218.41 69.068 217.144 68.1213 216.321 66.8304C214.183 63.6847 211.988 62.8385 209.734 64.0846C207.48 65.3307 206.859 67.4072 208.053 70.088C209.671 73.7237 214.035 76.9429 218.029 77.9365C219.966 78.4247 221.589 78.309 224.73 77.5631C224.864 77.5208 225.005 77.5065 225.144 77.5213C225.284 77.5361 225.419 77.5796 225.54 77.6491C225.662 77.7186 225.768 77.8126 225.852 77.9251C225.936 78.0376 225.995 78.1663 226.027 78.3029C226.058 78.4396 226.061 78.5813 226.035 78.7191C226.009 78.8569 225.955 78.9878 225.876 79.1037C225.797 79.2195 225.695 79.3177 225.576 79.3921C225.457 79.4665 225.324 79.5155 225.185 79.5359C221.761 80.3332 219.854 80.4929 217.529 79.9042C212.97 78.7396 208.085 75.1376 206.197 70.8861C204.589 67.2789 205.493 64.0709 208.755 62.2695C212.017 60.4681 215.32 61.7252 217.984 65.6674C218.53 66.5639 219.387 67.2278 220.391 67.5322C221.396 67.8366 222.477 67.7602 223.429 67.3177C225.628 66.2621 226.641 64.5301 225.707 62.2959C224.907 60.4881 223.757 58.8567 222.323 57.4961C220.888 56.1355 219.199 55.0726 217.351 54.369C215.504 53.6653 213.535 53.3347 211.559 53.3964C209.583 53.4581 207.639 53.9107 205.839 54.7283C198.331 58.1811 195.46 66.8522 199.018 74.6675C200.073 77.0522 201.687 79.147 203.725 80.7737Z" fill="#5E54D8"/>
<path d="M193.729 44.9988C193.508 45.1034 193.256 45.1262 193.02 45.0632C192.783 45.0002 192.576 44.8556 192.436 44.6548C192.296 44.454 192.231 44.2101 192.253 43.9662C192.275 43.7222 192.383 43.494 192.558 43.322C194.305 41.6742 196.321 40.3376 198.52 39.3702C200.632 38.3512 202.898 37.6874 205.227 37.4056C205.489 37.4007 205.743 37.4943 205.939 37.6679C206.135 37.8416 206.259 38.0826 206.286 38.3432C206.313 38.6038 206.241 38.865 206.084 39.075C205.928 39.285 205.698 39.4286 205.441 39.4772C201.201 40.0724 197.236 41.9218 194.055 44.7876C193.96 44.8771 193.85 44.9487 193.729 44.9988Z" fill="#5E54D8"/>
<circle cx="147.495" cy="89.4951" r="32.4951" fill="#E8F5FD"/>
<path d="M153.841 86.0889C153.841 85.6787 153.508 85.3462 153.098 85.3462C152.688 85.3462 152.355 85.6787 152.355 86.0889V87.615C152.355 88.0252 152.688 88.3578 153.098 88.3578C153.508 88.3578 153.841 88.0252 153.841 87.615V86.0889Z" fill="#1397E1"/>
<path d="M142.655 86.0889C142.655 85.6787 142.323 85.3462 141.913 85.3462C141.502 85.3462 141.17 85.6787 141.17 86.0889V87.615C141.17 88.0252 141.502 88.3578 141.913 88.3578C142.323 88.3578 142.655 88.0252 142.655 87.615V86.0889Z" fill="#1397E1"/>
<path d="M147.419 97.9729C148.348 97.9705 149.262 97.7324 150.074 97.2808C150.885 96.8291 151.569 96.1788 152.061 95.3907C152.149 95.2223 152.169 95.0272 152.119 94.8443C152.068 94.6615 151.951 94.5043 151.79 94.404C151.629 94.3038 151.436 94.2679 151.25 94.3034C151.064 94.3389 150.898 94.4433 150.785 94.5958C150.427 95.1702 149.928 95.644 149.336 95.9725C148.745 96.301 148.079 96.4734 147.402 96.4734C146.725 96.4734 146.059 96.301 145.467 95.9725C144.875 95.644 144.377 95.1702 144.019 94.5958C143.9 94.4702 143.741 94.3899 143.569 94.3684C143.397 94.347 143.223 94.3857 143.077 94.4781C142.93 94.5705 142.82 94.7108 142.766 94.875C142.711 95.0393 142.715 95.2175 142.777 95.3791C143.266 96.1713 143.949 96.8254 144.761 97.2793C145.574 97.7333 146.489 97.972 147.419 97.9729Z" fill="#1397E1"/>
<path d="M142.869 104.431H140.171C138.419 104.431 136.74 103.736 135.501 102.497C134.263 101.259 133.567 99.5792 133.567 97.8279V94.9788C133.567 94.8736 133.588 94.7695 133.628 94.6723C133.669 94.5752 133.728 94.4869 133.802 94.4125C133.876 94.3382 133.965 94.2792 134.062 94.239C134.159 94.1987 134.263 94.178 134.368 94.178C134.474 94.1772 134.579 94.1974 134.676 94.2373C134.774 94.2772 134.863 94.336 134.938 94.4105C135.013 94.4849 135.073 94.5734 135.113 94.671C135.154 94.7685 135.175 94.8731 135.175 94.9788V97.8337C135.174 98.49 135.303 99.14 135.553 99.7465C135.804 100.353 136.172 100.904 136.636 101.368C137.1 101.832 137.652 102.2 138.258 102.451C138.865 102.702 139.515 102.831 140.171 102.83H142.869C142.975 102.83 143.079 102.851 143.177 102.891C143.274 102.932 143.363 102.991 143.437 103.066C143.512 103.141 143.571 103.23 143.611 103.328C143.65 103.426 143.671 103.531 143.67 103.636C143.668 103.848 143.583 104.05 143.433 104.199C143.283 104.348 143.08 104.431 142.869 104.431Z" fill="#1397E1"/>
<path d="M154.667 104.432H152.061C151.956 104.432 151.851 104.412 151.753 104.372C151.655 104.333 151.566 104.274 151.491 104.199C151.416 104.125 151.357 104.036 151.316 103.939C151.276 103.841 151.255 103.737 151.255 103.631C151.255 103.417 151.34 103.212 151.491 103.061C151.642 102.909 151.848 102.824 152.061 102.824H154.661C155.317 102.825 155.967 102.696 156.574 102.446C157.18 102.195 157.731 101.827 158.196 101.363C158.66 100.899 159.028 100.348 159.278 99.7411C159.529 99.1346 159.658 98.4846 159.657 97.8283V94.8167C159.657 94.711 159.678 94.6064 159.719 94.5089C159.759 94.4113 159.819 94.3228 159.894 94.2484C159.969 94.1739 160.058 94.1151 160.156 94.0752C160.253 94.0353 160.358 94.0151 160.464 94.0159C160.676 94.0159 160.88 94.1003 161.03 94.2504C161.18 94.4006 161.265 94.6043 161.265 94.8167V97.8283C161.265 99.5786 160.57 101.257 159.332 102.496C158.095 103.734 156.417 104.43 154.667 104.432Z" fill="#1397E1"/>
<path d="M160.468 85.9439C160.363 85.9447 160.258 85.9245 160.16 85.8846C160.062 85.8447 159.973 85.7858 159.898 85.7114C159.823 85.637 159.764 85.5484 159.723 85.4509C159.683 85.3534 159.662 85.2488 159.662 85.1431V82.7524C159.662 82.0961 159.534 81.4461 159.283 80.8396C159.032 80.2331 158.664 79.682 158.2 79.2179C157.736 78.7538 157.185 78.3859 156.578 78.135C155.972 77.8842 155.322 77.7555 154.666 77.7563H152.223C152.009 77.7563 151.804 77.6713 151.652 77.5201C151.501 77.3688 151.416 77.1636 151.416 76.9497C151.416 76.8441 151.437 76.7395 151.478 76.6419C151.518 76.5444 151.578 76.4559 151.653 76.3814C151.728 76.307 151.817 76.2481 151.914 76.2082C152.012 76.1683 152.117 76.1482 152.223 76.1489H154.666C155.533 76.1482 156.392 76.3185 157.193 76.6501C157.995 76.9816 158.723 77.468 159.337 78.0814C159.95 78.6947 160.436 79.423 160.768 80.2245C161.099 81.026 161.27 81.885 161.269 82.7524V85.1431C161.269 85.3555 161.185 85.5592 161.034 85.7093C160.884 85.8595 160.681 85.9439 160.468 85.9439Z" fill="#1397E1"/>
<path d="M134.368 86.7214C134.263 86.7214 134.158 86.7005 134.06 86.6599C133.963 86.6193 133.874 86.5598 133.8 86.4849C133.725 86.4099 133.667 86.3209 133.627 86.2231C133.587 86.1253 133.567 86.0205 133.567 85.9149V82.7524C133.567 81.885 133.737 81.026 134.069 80.2245C134.4 79.423 134.886 78.6947 135.5 78.0814C136.113 77.468 136.841 76.9816 137.643 76.6501C138.444 76.3185 139.303 76.1482 140.171 76.1489H142.712C142.818 76.1482 142.923 76.1683 143.021 76.2082C143.118 76.2481 143.207 76.307 143.282 76.3814C143.357 76.4559 143.417 76.5444 143.458 76.6419C143.498 76.7395 143.519 76.8441 143.519 76.9497C143.519 77.1636 143.434 77.3688 143.283 77.5201C143.132 77.6713 142.926 77.7563 142.712 77.7563H140.171C139.515 77.7555 138.865 77.8842 138.258 78.135C137.652 78.3859 137.1 78.7538 136.636 79.2179C136.172 79.682 135.804 80.2331 135.554 80.8396C135.303 81.4461 135.174 82.0961 135.175 82.7524V85.9149C135.175 86.0208 135.154 86.1257 135.113 86.2235C135.073 86.3214 135.013 86.4103 134.939 86.4852C134.864 86.5601 134.775 86.6195 134.677 86.66C134.579 86.7006 134.474 86.7214 134.368 86.7214Z" fill="#1397E1"/>
<path d="M147.419 85.8746V90.8765C147.429 90.9413 147.424 91.0074 147.403 91.0697C147.383 91.1319 147.348 91.1884 147.302 91.2347C147.255 91.281 147.199 91.3158 147.137 91.3362C147.074 91.3567 147.008 91.3622 146.943 91.3524H146.468C146.278 91.3524 146.097 91.4276 145.963 91.5614C145.829 91.6953 145.754 91.8768 145.754 92.0661C145.754 92.2554 145.829 92.4369 145.963 92.5708C146.097 92.7046 146.278 92.7798 146.468 92.7798H146.943C147.196 92.7896 147.448 92.7471 147.683 92.6549C147.919 92.5627 148.132 92.4229 148.311 92.2441C148.49 92.0654 148.63 91.8517 148.722 91.6163C148.814 91.381 148.857 91.1291 148.847 90.8765V85.8746C148.847 85.6853 148.772 85.5038 148.638 85.3699C148.504 85.2361 148.322 85.1609 148.133 85.1609C147.944 85.1609 147.762 85.2361 147.628 85.3699C147.494 85.5038 147.419 85.6853 147.419 85.8746Z" fill="#1397E1"/>
</svg>
